<svg width="14" height="8" viewBox="0 0 14 8" fill="none" xmlns="http://www.w3.org/2000/svg">
<path d="M4.9134 2.7039C2.20684 3.07298 1.11764 4.21032 1.11764 4.21032L0.994141 5.89753L1.0129 5.89703C1.17234 7.17161 3.93748 8.10329 7.28256 7.9908C7.39628 7.98714 7.50897 7.9821 7.62085 7.97594L8.01571 2.58495C6.86059 2.55095 5.74185 2.59073 4.9134 2.7039Z" fill="#E88D21"/>
<path d="M13.363 5.5416L13.3641 5.54177L13.4739 3.9591C13.4376 3.11718 10.6333 2.66153 8.01571 2.58495L7.62085 7.97594C10.7548 7.80521 13.2307 6.75482 13.363 5.5416Z" fill="#CD7D25"/>
<path d="M13.4739 3.9591C13.5266 5.27391 10.802 6.4329 7.38826 6.54782C3.97458 6.6627 1.16429 5.68998 1.1115 4.37521C1.0587 3.06005 3.78333 1.90104 7.1972 1.78644C10.611 1.67152 13.4212 2.64427 13.4739 3.9591Z" fill="#F9B024"/>
<path d="M11.9197 4.0115C11.9549 4.88851 9.91183 5.66912 7.35651 5.75511C4.80117 5.84112 2.70107 5.19976 2.66583 4.32275C2.63062 3.44572 4.67365 2.66514 7.22899 2.57913C9.7843 2.49314 11.8845 3.13445 11.9197 4.0115Z" fill="#D69023"/>
<path d="M7.21916 2.71222C4.79019 2.79389 2.82445 3.50328 2.66609 4.32648C2.70739 5.20174 4.80492 5.84102 7.35651 5.75511C9.78548 5.67345 11.7513 4.96402 11.9096 4.14082C11.8685 3.26585 9.771 2.62657 7.21916 2.71222Z" fill="#EC9F1E"/>
<path d="M5.43291 0.926681C2.72635 1.29576 1.63715 2.4331 1.63715 2.4331L1.51365 4.12031L1.53241 4.11981C1.69185 5.39439 4.45698 6.32607 7.80207 6.21358C7.91578 6.20992 8.02847 6.20488 8.14035 6.19872L8.53522 0.807734C7.3801 0.773735 6.26136 0.813509 5.43291 0.926681Z" fill="#E88D21"/>
<path d="M13.8825 3.76438L13.8836 3.76456L13.9934 2.18188C13.9572 1.33997 11.1528 0.884311 8.53522 0.807734L8.14035 6.19872C11.2743 6.02799 13.7502 4.9776 13.8825 3.76438Z" fill="#CD7D25"/>
<path d="M13.9934 2.18188C14.0461 3.49669 11.3215 4.65568 7.90777 4.7706C4.49409 4.88548 1.6838 3.91277 1.63101 2.59799C1.57821 1.28283 4.30284 0.123821 7.71671 0.00921987C11.1305 -0.105702 13.9407 0.867051 13.9934 2.18188Z" fill="#F9B024"/>
<path d="M12.4392 2.23428C12.4744 3.11129 10.4313 3.8919 7.87602 3.9779C5.32068 4.0639 3.22057 3.42254 3.18534 2.54553C3.15013 1.6685 5.19315 0.887919 7.7485 0.801909C10.3038 0.715917 12.404 1.35723 12.4392 2.23428Z" fill="#D69023"/>
<path d="M7.73867 0.935005C5.3097 1.01667 3.34396 1.72606 3.18559 2.54926C3.2269 3.42453 5.32443 4.06381 7.87602 3.9779C10.305 3.89623 12.2708 3.1868 12.4291 2.3636C12.388 1.48863 10.2905 0.849349 7.73867 0.935005Z" fill="#EC9F1E"/>
<path d="M6.48548 2.50421L5.32228 1.90145C5.73928 1.74071 6.77079 1.41924 7.56089 1.41924C8.98306 1.48354 7.43652 2.16934 6.48548 2.50421Z" fill="#CD7D25"/>
<path fill-rule="evenodd" clip-rule="evenodd" d="M5.31376 1.88293C5.73145 1.72193 6.76628 1.39915 7.56089 1.39915L7.56197 1.39917C7.7405 1.40724 7.87393 1.42511 7.96838 1.45136C8.06177 1.47732 8.12225 1.51291 8.14645 1.56029C8.17147 1.60925 8.154 1.6625 8.1143 1.71407C8.07439 1.76589 8.00879 1.82063 7.92617 1.87643C7.5958 2.09954 6.96889 2.35552 6.49336 2.52296L6.48368 2.52636L5.27261 1.89879L5.31376 1.88293ZM5.37221 1.90424L6.48727 2.48204C6.9615 2.31459 7.57719 2.06218 7.90011 1.84409C7.98136 1.78922 8.04254 1.73751 8.07842 1.69091C8.1145 1.64406 8.12182 1.60692 8.10669 1.57731C8.09075 1.54612 8.04615 1.51497 7.95563 1.48981C7.86625 1.46497 7.73708 1.44735 7.56034 1.43933C6.79974 1.43948 5.81195 1.73956 5.37221 1.90424Z" fill="#CD7D25"/>
<path d="M5.9368 2.24302L6.48548 2.5243L7.12194 2.28319L7.49504 2.12246C7.07805 1.84117 6.06848 2.07907 5.9368 2.24302Z" fill="#C16600" fill-opacity="0.5"/>
<path d="M7.95991 3.2677L6.61716 2.57564C7.09853 2.3911 8.28927 2.022 9.20133 2.022C10.843 2.09582 9.05776 2.88322 7.95991 3.2677Z" fill="#CD7D25"/>
<path fill-rule="evenodd" clip-rule="evenodd" d="M6.60868 2.55711C7.09074 2.3723 8.28478 2.00191 9.20133 2.00191L9.2024 2.00193C9.40837 2.01119 9.56207 2.03168 9.67071 2.06172C9.77827 2.09145 9.84687 2.13197 9.8742 2.18516C9.90237 2.24 9.88293 2.29998 9.83737 2.35883C9.7916 2.41794 9.7162 2.48056 9.62094 2.54455C9.23998 2.80045 8.51669 3.09422 7.96776 3.28646L7.95813 3.28984L6.56727 2.57299L6.60868 2.55711ZM6.66728 2.57842L7.96169 3.24556C8.50935 3.05329 9.22145 2.76306 9.59497 2.51215C9.68887 2.44908 9.75984 2.38948 9.80156 2.33559C9.84348 2.28144 9.85265 2.23764 9.83448 2.20227C9.81546 2.16525 9.76277 2.12914 9.65802 2.10018C9.55443 2.07155 9.40497 2.0513 9.20079 2.04209C8.31848 2.04223 7.17191 2.3898 6.66728 2.57842Z" fill="#CD7D25"/>
<path d="M7.25363 2.92613L7.95593 3.28778L9.16302 2.80558C8.52656 2.46402 7.51699 2.752 7.25363 2.92613Z" fill="#C16600" fill-opacity="0.5"/>
</svg>
