<svg width="343" height="331" viewBox="0 0 343 331" fill="none" xmlns="http://www.w3.org/2000/svg">
<path d="M110.185 145.97C48.524 155.154 23.7098 183.458 23.7098 183.458L20.8961 225.445L21.3235 225.432C24.9558 257.151 87.9513 280.337 164.159 277.537C166.75 277.446 169.317 277.321 171.866 277.168L180.862 143.009C154.546 142.163 129.059 143.153 110.185 145.97Z" fill="#E88D21"/>
<path d="M302.684 216.587L302.709 216.592L305.21 177.206C304.385 156.254 240.497 144.915 180.862 143.01L171.866 277.168C243.264 272.919 299.67 246.779 302.684 216.587Z" fill="#CD7D25"/>
<path d="M305.21 177.206C306.411 209.926 244.34 238.768 166.567 241.628C88.7966 244.487 24.7725 220.28 23.5699 187.561C22.367 154.832 84.4395 125.99 162.215 123.138C239.987 120.278 304.009 144.486 305.21 177.206Z" fill="#F9B024"/>
<path d="M269.802 178.51C270.605 200.335 224.059 219.761 165.844 221.901C107.628 224.041 59.7833 208.081 58.9806 186.256C58.1783 164.43 104.723 145.005 162.939 142.865C221.154 140.725 269.001 156.684 269.802 178.51Z" fill="#D69023"/>
<path d="M162.715 146.177C107.378 148.209 62.5943 165.863 58.9865 186.348C59.9275 208.13 107.713 224.039 165.844 221.901C221.181 219.868 265.966 202.214 269.574 181.728C268.637 159.954 220.851 144.045 162.715 146.177Z" fill="#EC9F1E"/>
<path d="M122.02 101.742C60.3594 110.927 35.5452 139.23 35.5452 139.23L32.7316 181.218L33.1589 181.205C36.7913 212.924 99.7868 236.109 175.995 233.31C178.585 233.219 181.153 233.093 183.701 232.94L192.697 98.7822C166.381 97.9362 140.894 98.9259 122.02 101.742Z" fill="#E88D21"/>
<path d="M314.519 172.36L314.544 172.365L317.046 132.979C316.22 112.027 252.332 100.688 192.698 98.7825L183.702 232.941C255.1 228.692 311.506 202.552 314.519 172.36Z" fill="#CD7D25"/>
<path d="M317.045 132.979C318.247 165.699 256.175 194.541 178.403 197.401C100.632 200.26 36.6079 176.053 35.4053 143.334C34.2024 110.605 96.2749 81.7626 174.05 78.9107C251.822 76.0508 315.845 100.258 317.045 132.979Z" fill="#F9B024"/>
<path d="M281.637 134.283C282.44 156.108 235.895 175.534 177.679 177.674C119.463 179.814 71.6187 163.853 70.816 142.028C70.0138 120.203 116.558 100.778 174.774 98.6374C232.989 96.4974 280.836 112.457 281.637 134.283Z" fill="#D69023"/>
<path d="M174.55 101.95C119.213 103.982 74.4298 121.635 70.822 142.121C71.763 163.903 119.549 179.812 177.679 177.674C233.016 175.641 277.801 157.987 281.409 137.501C280.472 115.727 232.686 99.8179 174.55 101.95Z" fill="#EC9F1E"/>
<path d="M146 141L119.5 126C129 122 152.5 114 170.5 114C202.9 115.6 167.667 132.667 146 141Z" fill="#CD7D25" stroke="#CD7D25"/>
<path d="M133.5 134.5L146 141.5L160.5 135.5L169 131.5C159.5 124.5 136.5 130.42 133.5 134.5Z" fill="#C16600" fill-opacity="0.5"/>
<path d="M179.591 160L149 142.778C159.966 138.185 187.094 129 207.873 129C245.274 130.837 204.602 150.432 179.591 160Z" fill="#CD7D25" stroke="#CD7D25"/>
<path d="M163.5 151.5L179.5 160.5L207 148.5C192.5 140 169.5 147.166 163.5 151.5Z" fill="#C16600" fill-opacity="0.5"/>
</svg>
