<svg width="11" height="11" viewBox="0 0 11 11" fill="none" xmlns="http://www.w3.org/2000/svg">
<g clip-path="url(#clip0_35_450)">
<path d="M3.97461 6.56792C3.97461 7.15917 4.42836 7.63583 4.99211 7.63583H6.14253C6.63294 7.63583 7.03169 7.21875 7.03169 6.70542C7.03169 6.14625 6.78878 5.94917 6.42669 5.82083L4.57961 5.17917C4.21753 5.05083 3.97461 4.85375 3.97461 4.29458C3.97461 3.78125 4.37336 3.36417 4.86378 3.36417H6.01419C6.57794 3.36417 7.03169 3.84083 7.03169 4.43208M5.49994 2.75V8.25" stroke="white" stroke-linecap="round" stroke-linejoin="round"/>
<path d="M5.50008 10.0833C8.03146 10.0833 10.0834 8.03133 10.0834 5.49996C10.0834 2.96858 8.03146 0.916626 5.50008 0.916626C2.96871 0.916626 0.916748 2.96858 0.916748 5.49996C0.916748 8.03133 2.96871 10.0833 5.50008 10.0833Z" stroke="white" stroke-linecap="round" stroke-linejoin="round"/>
</g>
<defs>
<clipPath id="clip0_35_450">
<rect width="11" height="11" fill="white"/>
</clipPath>
</defs>
</svg>
