<svg width="102" height="99" viewBox="0 0 102 99" fill="none" xmlns="http://www.w3.org/2000/svg">
<path d="M32.8263 43.4871C14.4563 46.2234 7.06362 54.6555 7.06362 54.6555L6.22537 67.1644L6.35269 67.1606C7.43483 76.6103 26.2024 83.5177 48.9063 82.6837C49.6781 82.6566 50.4429 82.6192 51.2023 82.5736L53.8823 42.6052C46.0423 42.3531 38.4491 42.648 32.8263 43.4871Z" fill="#E88D21"/>
<path d="M90.1756 64.5257L90.183 64.5271L90.9282 52.7932C90.6823 46.5513 71.6488 43.1732 53.8825 42.6055L51.2025 82.5738C72.4733 81.308 89.2778 73.5204 90.1756 64.5257Z" fill="#CD7D25"/>
<path d="M90.9282 52.7932C91.286 62.5411 72.7936 71.1337 49.6237 71.9858C26.4543 72.8375 7.38026 65.6258 7.02198 55.8782C6.66361 46.1277 25.1562 37.5349 48.327 36.6853C71.4969 35.8333 90.5705 43.0452 90.9282 52.7932Z" fill="#F9B024"/>
<path d="M80.3793 53.1815C80.6185 59.6836 66.7516 65.471 49.4081 66.1086C32.0645 66.7462 17.8106 61.9912 17.5715 55.4891C17.3325 48.9869 31.1989 43.1997 48.5426 42.5621C65.8861 41.9245 80.1406 46.6792 80.3793 53.1815Z" fill="#D69023"/>
<path d="M48.4759 43.5488C31.99 44.1543 18.648 49.4137 17.5732 55.5168C17.8535 62.0059 32.0899 66.7455 49.4081 66.1085C65.894 65.503 79.2364 60.2434 80.3112 54.1403C80.0321 47.6533 65.7958 42.9138 48.4759 43.5488Z" fill="#EC9F1E"/>
<path d="M36.3524 30.311C17.9824 33.0474 10.5897 41.4795 10.5897 41.4795L9.75149 53.9884L9.87881 53.9846C10.961 63.4343 29.7286 70.3417 52.4324 69.5077C53.2042 69.4806 53.969 69.4432 54.7284 69.3975L57.4085 29.4292C49.5684 29.1771 41.9752 29.472 36.3524 30.311Z" fill="#E88D21"/>
<path d="M93.7015 51.3495L93.7089 51.3508L94.4541 39.6169C94.2082 33.3751 75.1747 29.997 57.4084 29.4292L54.7283 69.3976C75.9992 68.1318 92.8037 60.3442 93.7015 51.3495Z" fill="#CD7D25"/>
<path d="M94.454 39.6169C94.8119 49.3648 76.3195 57.9575 53.1496 58.8095C29.9802 59.6612 10.9061 52.4496 10.5479 42.7019C10.1895 32.9514 28.6821 24.3587 51.8529 23.509C75.0228 22.657 94.0964 29.8689 94.454 39.6169Z" fill="#F9B024"/>
<path d="M83.9055 40.0055C84.1446 46.5076 70.2777 52.295 52.9343 52.9325C35.5906 53.5702 21.3367 48.8152 21.0976 42.3131C20.8586 35.8109 34.7251 30.0237 52.0687 29.386C69.4122 28.7485 83.6667 33.5031 83.9055 40.0055Z" fill="#D69023"/>
<path d="M52.002 30.3728C35.5161 30.9783 22.1741 36.2376 21.0993 42.3408C21.3796 48.8299 35.616 53.5694 52.9342 52.9325C69.4202 52.327 82.7625 47.0674 83.8373 40.9643C83.5582 34.4773 69.3219 29.7378 52.002 30.3728Z" fill="#EC9F1E"/>
<path d="M43.4962 42.0067L35.6013 37.5379C38.4316 36.3462 45.4327 33.9629 50.7952 33.9629C60.4478 34.4396 49.9511 39.5241 43.4962 42.0067Z" fill="#CD7D25" stroke="#CD7D25"/>
<path d="M39.7722 40.0702L43.4962 42.1557L47.8161 40.3681L50.3484 39.1764C47.5181 37.091 40.666 38.8548 39.7722 40.0702Z" fill="#C16600" fill-opacity="0.5"/>
<path d="M53.5037 47.6672L44.3901 42.5363C47.6573 41.1681 55.7391 38.4316 61.9295 38.4316C73.0721 38.9789 60.955 44.8167 53.5037 47.6672Z" fill="#CD7D25" stroke="#CD7D25"/>
<path d="M48.71 45.1347L53.4767 47.816L61.6695 44.241C57.3496 41.7087 50.4975 43.8437 48.71 45.1347Z" fill="#C16600" fill-opacity="0.5"/>
<path d="M80 25.0652C80 25.0652 88.0161 23.7304 88.2291 16C88.6908 21.7518 91.8144 24.1702 96 25.0652C91.9548 26.2793 89.5381 28.0033 88.3002 33C86.8576 27.9606 83.7019 26.0821 80 25.0652Z" fill="#FEEAC3"/>
<path d="M3 37.0652C3 37.0652 11.0161 35.7304 11.2291 28C11.6908 33.7518 14.8144 36.1702 19 37.0652C14.9548 38.2793 12.5381 40.0033 11.3002 45C9.85764 39.9606 6.70194 38.0821 3 37.0652Z" fill="#FEEAC3"/>
<path d="M32.8263 43.4871C14.4563 46.2234 7.06362 54.6555 7.06362 54.6555L6.22537 67.1644L6.35269 67.1606C7.43483 76.6103 26.2024 83.5177 48.9063 82.6837C49.6781 82.6566 50.4429 82.6192 51.2023 82.5736L53.8823 42.6052C46.0423 42.3531 38.4491 42.648 32.8263 43.4871Z" fill="#E88D21"/>
<path d="M90.1756 64.5257L90.183 64.5271L90.9282 52.7932C90.6823 46.5513 71.6488 43.1732 53.8825 42.6055L51.2025 82.5738C72.4733 81.308 89.2778 73.5204 90.1756 64.5257Z" fill="#CD7D25"/>
<path d="M90.9282 52.7932C91.286 62.5411 72.7936 71.1337 49.6237 71.9858C26.4543 72.8375 7.38026 65.6258 7.02198 55.8782C6.66361 46.1277 25.1562 37.5349 48.327 36.6853C71.4969 35.8333 90.5705 43.0452 90.9282 52.7932Z" fill="#F9B024"/>
<path d="M80.3793 53.1815C80.6185 59.6836 66.7516 65.471 49.4081 66.1086C32.0645 66.7462 17.8106 61.9912 17.5715 55.4891C17.3325 48.9869 31.1989 43.1997 48.5426 42.5621C65.8861 41.9245 80.1406 46.6792 80.3793 53.1815Z" fill="#D69023"/>
<path d="M48.4759 43.5488C31.99 44.1543 18.648 49.4137 17.5732 55.5168C17.8535 62.0059 32.0899 66.7455 49.4081 66.1085C65.894 65.503 79.2364 60.2434 80.3112 54.1403C80.0321 47.6533 65.7958 42.9138 48.4759 43.5488Z" fill="#EC9F1E"/>
<path d="M36.3524 30.311C17.9824 33.0474 10.5897 41.4795 10.5897 41.4795L9.75149 53.9884L9.87881 53.9846C10.961 63.4343 29.7286 70.3417 52.4324 69.5077C53.2042 69.4806 53.969 69.4432 54.7284 69.3975L57.4085 29.4292C49.5684 29.1771 41.9752 29.472 36.3524 30.311Z" fill="#E88D21"/>
<path d="M93.7015 51.3495L93.7089 51.3508L94.4541 39.6169C94.2082 33.3751 75.1747 29.997 57.4084 29.4292L54.7283 69.3976C75.9992 68.1318 92.8037 60.3442 93.7015 51.3495Z" fill="#CD7D25"/>
<path d="M94.454 39.6169C94.8119 49.3648 76.3195 57.9575 53.1496 58.8095C29.9802 59.6612 10.9061 52.4496 10.5479 42.7019C10.1895 32.9514 28.6821 24.3587 51.8529 23.509C75.0228 22.657 94.0964 29.8689 94.454 39.6169Z" fill="#F9B024"/>
<path d="M83.9055 40.0055C84.1446 46.5076 70.2777 52.295 52.9343 52.9325C35.5906 53.5702 21.3367 48.8152 21.0976 42.3131C20.8586 35.8109 34.7251 30.0237 52.0687 29.386C69.4122 28.7485 83.6667 33.5031 83.9055 40.0055Z" fill="#D69023"/>
<path d="M52.002 30.3728C35.5161 30.9783 22.1741 36.2376 21.0993 42.3408C21.3796 48.8299 35.616 53.5694 52.9342 52.9325C69.4202 52.327 82.7625 47.0674 83.8373 40.9643C83.5582 34.4773 69.3219 29.7378 52.002 30.3728Z" fill="#EC9F1E"/>
<path d="M43.4962 42.0067L35.6013 37.5379C38.4316 36.3462 45.4327 33.9629 50.7952 33.9629C60.4478 34.4396 49.9511 39.5241 43.4962 42.0067Z" fill="#CD7D25" stroke="#CD7D25"/>
<path d="M39.7722 40.0702L43.4962 42.1557L47.8161 40.3681L50.3484 39.1764C47.5181 37.091 40.666 38.8548 39.7722 40.0702Z" fill="#C16600" fill-opacity="0.5"/>
<path d="M53.5037 47.6672L44.3901 42.5363C47.6573 41.1681 55.7391 38.4316 61.9295 38.4316C73.0721 38.9789 60.955 44.8167 53.5037 47.6672Z" fill="#CD7D25" stroke="#CD7D25"/>
<path d="M48.71 45.1347L53.4767 47.816L61.6695 44.241C57.3496 41.7087 50.4975 43.8437 48.71 45.1347Z" fill="#C16600" fill-opacity="0.5"/>
<path d="M80 25.0652C80 25.0652 88.0161 23.7304 88.2291 16C88.6908 21.7518 91.8144 24.1702 96 25.0652C91.9548 26.2793 89.5381 28.0033 88.3002 33C86.8576 27.9606 83.7019 26.0821 80 25.0652Z" fill="#FEEAC3"/>
<path d="M3 37.0652C3 37.0652 11.0161 35.7304 11.2291 28C11.6908 33.7518 14.8144 36.1702 19 37.0652C14.9548 38.2793 12.5381 40.0033 11.3002 45C9.85764 39.9606 6.70194 38.0821 3 37.0652Z" fill="#FEEAC3"/>
</svg>
