<svg width="322" height="318" viewBox="0 0 322 318" fill="none" xmlns="http://www.w3.org/2000/svg">
<mask id="mask0_265_2439" style="mask-type:luminance" maskUnits="userSpaceOnUse" x="4" y="0" width="316" height="317">
<path d="M166.637 316.963C147.505 316.963 132.89 314.288 127.061 313.104C112.467 310.139 88.4746 305.268 65.2938 291.102H259.757C227.608 311.925 192.877 316.963 166.637 316.963ZM21.1438 244.785C3.21035 211.785 0.395684 171.658 8.55476 134.506C9.51672 137.285 10.5838 140.094 11.7647 142.926C13.9377 148.137 16.4065 153.049 19.084 157.667L21.1438 244.785ZM305.578 237.306L307.141 129.371C307.141 126.699 304.106 121.576 298.527 121.576C298.32 121.576 298.109 121.583 297.894 121.598L275.908 121.028L279.34 50.5096C325.041 102.183 329.121 182.704 305.578 237.306ZM206.797 6.235L119.608 5.70072C126.137 3.78228 133.056 2.28761 140.373 1.33067C147.131 0.447773 154.079 9.66035e-05 161.116 9.66035e-05C176.197 9.66035e-05 191.715 2.04951 206.797 6.235Z" fill="white"/>
</mask>
<g mask="url(#mask0_265_2439)">
<path d="M166.637 316.963C147.505 316.963 132.89 314.288 127.061 313.104C112.467 310.139 88.4746 305.268 65.2938 291.102H259.757C227.608 311.925 192.877 316.963 166.637 316.963ZM21.1438 244.785C3.21035 211.785 0.395684 171.658 8.55476 134.506C9.51672 137.285 10.5838 140.094 11.7647 142.926C13.9377 148.137 16.4065 153.049 19.084 157.667L21.1438 244.785ZM305.578 237.306L307.141 129.371C307.141 126.699 304.106 121.576 298.527 121.576C298.32 121.576 298.109 121.583 297.894 121.598L275.908 121.028L279.34 50.5096C325.041 102.183 329.121 182.704 305.578 237.306ZM206.797 6.235L119.608 5.70072C126.137 3.78228 133.056 2.28761 140.373 1.33067C147.131 0.447773 154.079 9.66035e-05 161.116 9.66035e-05C176.197 9.66035e-05 191.715 2.04951 206.797 6.235Z" fill="url(#paint0_linear_265_2439)"/>
</g>
<path d="M31.9932 6.80016C24.918 28.0716 -11.1995 153.544 100.453 208.585C100.453 208.585 145.495 132.104 35.2177 6.144C34.2529 5.04238 32.4553 5.41032 31.9932 6.80016Z" fill="#BDD0FB"/>
<path d="M47.5553 83.2964C46.6378 79.9505 45.7403 76.5989 44.8607 73.2428C43.0452 66.3152 41.3106 59.366 39.6565 52.3985C38.0055 45.4288 36.4152 38.4488 34.9682 31.4301C34.9319 31.2535 35.0445 31.0815 35.2203 31.0439C35.2431 31.0394 35.2658 31.0371 35.2881 31.0371C35.4392 31.0371 35.5748 31.1419 35.6073 31.2957L35.6079 31.2991C37.088 38.295 38.7142 45.267 40.3995 52.2197C42.0881 59.1735 43.8571 66.1067 45.7066 73.0184C46.2483 75.0428 46.7962 77.0637 47.3514 79.0847L47.5553 83.2964Z" fill="#DBE5FD"/>
<path d="M79.5388 214.862C79.5388 214.862 83.6867 193.333 66.7568 167.009C51.0504 142.586 11.8173 85.4618 6.00332 57.2445C5.74585 55.9948 3.9779 55.9686 3.69754 57.2138C0.690457 70.5699 -4.21182 104.612 11.7649 142.926C32.3679 192.333 79.5388 214.862 79.5388 214.862Z" fill="#BDD0FB"/>
<path d="M18.5018 125.586C18.3518 125.279 18.2269 124.96 18.0858 124.648L17.1754 122.561C16.578 121.166 15.9279 119.794 15.4261 118.359C13.188 112.717 11.4534 106.876 10.2025 100.943C10.0212 100.207 9.9165 99.4539 9.78082 98.7077L9.39406 96.4669L9.10128 94.2124L8.95558 93.0857C8.91456 92.7086 8.88688 92.3304 8.85191 91.9533C8.55525 88.9401 8.42618 85.9007 8.67351 82.8817C8.67487 82.8715 8.68376 82.8635 8.69401 82.8635C8.69458 82.8635 8.69515 82.8635 8.69572 82.8635C8.70711 82.8646 8.71498 82.8738 8.71384 82.8852C8.63147 84.3935 8.71577 85.9052 8.78708 87.4101L8.96617 89.6658C9.03213 90.4165 9.14002 91.1638 9.22466 91.9123C9.2716 92.2871 9.3109 92.6608 9.36365 93.0344L9.54478 94.1509L9.90739 96.3815L10.3632 98.5961C10.5255 99.332 10.6422 100.076 10.8372 100.805C12.1998 106.672 14.0386 112.431 16.3723 117.981C17.1797 119.921 18.0222 121.848 18.9062 123.755C18.727 124.353 18.5914 124.966 18.5018 125.586Z" fill="#DBE5FD"/>
<mask id="mask1_265_2439" style="mask-type:luminance" maskUnits="userSpaceOnUse" x="18" y="114" width="290" height="178">
<path d="M299.829 291.102H27.162C24.3887 291.102 22.1196 288.835 22.1196 286.066L21.1436 244.785L19.0837 157.667L18.3751 127.698C18.3583 126.988 18.4013 126.281 18.5015 125.586C18.5911 124.965 18.7267 124.353 18.9059 123.754C19.5057 121.754 20.5963 119.912 22.1051 118.408C24.4915 116.029 27.722 114.698 31.0839 114.698C31.1935 114.698 31.3033 114.7 31.4132 114.702L33.393 114.753L49.0979 115.16L49.387 121.131L32.4612 120.676C32.3815 120.674 32.3015 120.674 32.2219 120.674C29.8628 120.674 27.5967 121.609 25.9218 123.279C24.1903 125.006 23.238 127.37 23.2994 129.815L27.0977 281.232C27.0977 283.855 29.2443 286.003 31.868 286.003H293.253C295.877 286.003 298.024 283.855 298.024 281.232L300.165 138.983C299.92 130.66 292.817 127.521 288.242 127.521C288.112 127.521 287.984 127.524 287.859 127.529L275.608 127.199L275.908 121.028L297.893 121.598C298.109 121.583 298.319 121.576 298.527 121.576C304.105 121.576 307.14 126.699 307.14 129.371L305.577 237.306L304.871 286.066C304.871 288.835 302.603 291.102 299.829 291.102Z" fill="white"/>
</mask>
<g mask="url(#mask1_265_2439)">
<path d="M299.829 291.102H27.162C24.3887 291.102 22.1196 288.835 22.1196 286.066L21.1436 244.785L19.0837 157.667L18.3751 127.698C18.3583 126.988 18.4013 126.281 18.5015 125.586C18.5911 124.965 18.7267 124.353 18.9059 123.754C19.5057 121.754 20.5963 119.912 22.1051 118.408C24.4915 116.029 27.722 114.698 31.0839 114.698C31.1935 114.698 31.3033 114.7 31.4132 114.702L33.393 114.753L49.0979 115.16L49.387 121.131L32.4612 120.676C32.3815 120.674 32.3015 120.674 32.2219 120.674C29.8628 120.674 27.5967 121.609 25.9218 123.279C24.1903 125.006 23.238 127.37 23.2994 129.815L27.0977 281.232C27.0977 283.855 29.2443 286.003 31.868 286.003H293.253C295.877 286.003 298.024 283.855 298.024 281.232L300.165 138.983C299.92 130.66 292.817 127.521 288.242 127.521C288.112 127.521 287.984 127.524 287.859 127.529L275.608 127.199L275.908 121.028L297.893 121.598C298.109 121.583 298.319 121.576 298.527 121.576C304.105 121.576 307.14 126.699 307.14 129.371L305.577 237.306L304.871 286.066C304.871 288.835 302.603 291.102 299.829 291.102Z" fill="url(#paint1_linear_265_2439)"/>
</g>
<mask id="mask2_265_2439" style="mask-type:luminance" maskUnits="userSpaceOnUse" x="23" y="120" width="278" height="167">
<path d="M293.253 286.003H31.8683C29.2446 286.003 27.0979 283.856 27.0979 281.232L23.2997 129.815C23.2383 127.371 24.1905 125.007 25.922 123.28C27.5969 121.61 29.863 120.674 32.2221 120.674C32.3018 120.674 32.3817 120.674 32.4615 120.677L49.3873 121.131L57.3463 285.497H267.903L275.608 127.2L287.859 127.529C287.985 127.524 288.112 127.521 288.242 127.521C292.817 127.521 299.92 130.661 300.165 138.984L298.025 281.232C298.025 283.856 295.877 286.003 293.253 286.003Z" fill="white"/>
</mask>
<g mask="url(#mask2_265_2439)">
<path d="M293.253 286.003H31.8683C29.2446 286.003 27.0979 283.856 27.0979 281.232L23.2997 129.815C23.2383 127.371 24.1905 125.007 25.922 123.28C27.5969 121.61 29.863 120.674 32.2221 120.674C32.3018 120.674 32.3817 120.674 32.4615 120.677L49.3873 121.131L57.3463 285.497H267.903L275.608 127.2L287.859 127.529C287.985 127.524 288.112 127.521 288.242 127.521C292.817 127.521 299.92 130.661 300.165 138.984L298.025 281.232C298.025 283.856 295.877 286.003 293.253 286.003Z" fill="url(#paint2_linear_265_2439)"/>
</g>
<mask id="mask3_265_2439" style="mask-type:luminance" maskUnits="userSpaceOnUse" x="0" y="290" width="322" height="15">
<path d="M0.644003 304.11H320.819C321.174 304.11 321.464 303.82 321.464 303.466V290.986C321.464 290.633 321.174 290.342 320.819 290.342H0.644003C0.289706 290.342 0 290.633 0 290.986V303.466C0 303.82 0.289706 304.11 0.644003 304.11Z" fill="white"/>
</mask>
<g mask="url(#mask3_265_2439)">
<path d="M0.644003 304.11H320.819C321.174 304.11 321.464 303.82 321.464 303.466V290.986C321.464 290.633 321.174 290.342 320.819 290.342H0.644003C0.289706 290.342 0 290.633 0 290.986V303.466C0 303.82 0.289706 304.11 0.644003 304.11Z" fill="url(#paint3_linear_265_2439)"/>
</g>
<path d="M244.424 6.46516L55.2131 5.30657C48.9949 5.26897 44.0215 10.4627 44.3295 16.6737L57.3466 285.497H267.903L279.593 45.3182L244.424 6.46516Z" fill="#91B3FA"/>
<path d="M252.29 44.1665C246.127 43.9489 241.389 38.6367 241.875 32.4884L243.904 6.81955L279.63 45.1599L252.29 44.1665Z" fill="#BDD0FB"/>
<path d="M245.043 142.345H244.98L244.903 118.633H253.627V137.654C253.627 140.198 249.697 142.345 245.043 142.345ZM105.928 142.345H80.9083C76.3104 142.345 72.461 140.299 72.3277 137.785L68.8975 73.0434C68.8565 72.2585 69.1766 71.5021 69.8488 70.7935C71.3514 69.2077 74.2758 68.2223 77.4781 68.2223H115.314C115.314 68.3544 115.322 68.4854 115.335 68.6187C115.422 69.4595 115.751 70.1965 116.238 70.7832L116.013 115.803L109.102 115.824L109.107 117.435L107.385 117.441L107.392 119.512L105.812 119.52L105.928 142.345ZM253.627 117.475H244.899L244.893 115.387L227.049 115.445C225.049 109.021 220.083 103.907 213.752 101.703L213.814 89.3331L218.84 89.357C218.586 90.4746 218.451 91.6378 218.451 92.8305C218.451 101.428 225.42 108.397 234.017 108.397C242.613 108.397 249.582 101.428 249.582 92.8305C249.582 91.6902 249.46 90.5783 249.227 89.5063L253.627 89.5279V117.475ZM117.172 115.798L117.306 88.8603L146.926 89.005C146.911 89.242 146.904 89.4801 146.904 89.7204C146.904 96.2709 152.214 101.581 158.765 101.581C165.314 101.581 170.624 96.2709 170.624 89.7204C170.624 89.5199 170.619 89.3194 170.609 89.1212L176.899 89.152C180.686 93.5311 186.281 96.3017 192.524 96.3017C198.694 96.3017 204.232 93.5961 208.015 89.3046L212.657 89.3274L212.596 101.337C210.743 100.808 208.785 100.526 206.763 100.526C197.185 100.526 189.087 106.865 186.435 115.576L117.172 115.798ZM253.627 88.3693L248.927 88.3466C247.002 81.9362 241.055 77.2654 234.017 77.2654C227.032 77.2654 221.122 81.8655 219.151 88.2007L213.821 88.1745L213.92 68.2223H245.043C249.697 68.2223 253.627 70.3708 253.627 72.9136V88.3693ZM212.662 88.1688L208.961 88.1506C210.755 85.7947 212.054 83.0401 212.703 80.0451L212.662 88.1688ZM175.965 87.9888L170.495 87.9626C169.645 82.246 164.717 77.8601 158.765 77.8601C152.851 77.8601 147.949 82.1879 147.051 87.8476L117.312 87.7017L117.392 71.7425C117.991 72.0774 118.673 72.2619 119.373 72.2619C120.012 72.2619 120.667 72.1081 121.287 71.7732C123.835 70.3993 126.277 69.2214 128.629 68.2223H172.705C172.867 68.2781 173.03 68.3339 173.193 68.3909C172.343 70.6511 171.878 73.0993 171.878 75.6557C171.878 80.2798 173.398 84.5484 175.965 87.9888ZM212.745 71.4702C212.515 70.3526 212.194 69.2669 211.792 68.2223H212.761L212.745 71.4702Z" fill="#BCD1FC"/>
<path d="M77.4779 68.2224C74.2755 68.2224 71.3511 69.2078 69.8485 70.7936C69.1764 71.5022 68.8563 72.2586 68.8973 73.0436L72.3275 137.785C72.4607 140.3 76.3101 142.346 80.908 142.346H245.043C249.697 142.346 253.627 140.198 253.627 137.654V72.9137C253.627 70.3709 249.697 68.2224 245.043 68.2224H77.4779ZM245.043 143.504H80.908C75.6152 143.504 71.3386 141.018 71.17 137.846L67.741 73.1051C67.6829 72.0057 68.1203 70.9314 69.0078 69.9962C70.7223 68.1882 73.9679 67.0649 77.4779 67.0649H245.043C250.507 67.0649 254.786 69.6339 254.786 72.9137V137.654C254.786 140.934 250.507 143.504 245.043 143.504Z" fill="white"/>
<path d="M117.035 142.927L115.877 142.922L116.257 67.124L117.414 67.1308L117.035 142.927Z" fill="white"/>
<path d="M213.546 142.927L212.388 142.922L212.766 67.124L213.925 67.1308L213.546 142.927Z" fill="white"/>
<path d="M254.203 89.5312L116.832 88.858L116.838 87.6994L254.209 88.3727L254.203 89.5312Z" fill="white"/>
<path d="M116.457 118.633H254.194V117.475H116.457V118.633Z" fill="white"/>
<path d="M245.588 268.773H81.4526C76.5004 268.773 72.4437 266.511 72.2933 263.664L68.8643 198.923C68.7059 195.951 72.8526 193.493 78.0224 193.493H245.588C250.648 193.493 254.751 195.852 254.751 198.763V263.505C254.751 266.414 250.648 268.773 245.588 268.773Z" fill="#BCD1FC"/>
<path d="M77.7591 194.072C74.5556 194.072 71.6324 195.057 70.1286 196.643C69.4565 197.351 69.1364 198.108 69.1785 198.893L72.6076 263.634C72.7408 266.149 76.5903 268.195 81.1881 268.195H245.324C249.977 268.195 253.908 266.046 253.908 263.503V198.763C253.908 196.22 249.977 194.072 245.324 194.072H77.7591ZM245.324 269.353H81.1881C75.8965 269.353 71.6199 266.867 71.4513 263.695L68.0222 198.953C67.9641 197.855 68.4016 196.781 69.2879 195.845C71.0035 194.037 74.2492 192.914 77.7591 192.914H245.324C250.787 192.914 255.067 195.483 255.067 198.763V263.503C255.067 266.783 250.787 269.353 245.324 269.353Z" fill="white"/>
<path d="M117.316 268.777L116.158 268.771L116.537 192.973L117.696 192.979L117.316 268.777Z" fill="white"/>
<path d="M213.827 268.777L212.668 268.771L213.048 192.973L214.205 192.979L213.827 268.777Z" fill="white"/>
<path d="M254.485 215.379L117.114 214.707L117.119 213.549L254.491 214.222L254.485 215.379Z" fill="white"/>
<path d="M254.474 244.482H116.737V243.324H254.474V244.482Z" fill="white"/>
<path d="M236.257 54.8364H160.706C157.488 54.2714 154.292 53.982 151.096 53.982C147.949 53.982 144.799 54.2623 141.629 54.8364H82.8367C82.3491 54.8364 81.9526 54.4411 81.9526 53.9524V42.3962C81.9526 41.9074 82.3491 41.5121 82.8367 41.5121H236.257C236.746 41.5121 237.141 41.9074 237.141 42.3962V53.9524C237.141 54.4411 236.746 54.8364 236.257 54.8364Z" fill="#CDDDFD"/>
<path d="M251.371 165.514H249.093C250.094 163.992 250.892 162.519 251.508 161.236C249.096 160.235 246.928 158.954 245.028 157.586L245.021 155.476H251.371C251.805 155.476 252.157 155.828 252.157 156.262V164.728C252.157 165.162 251.805 165.514 251.371 165.514ZM106.046 165.514H73.2822C72.8481 165.514 72.4961 165.162 72.4961 164.728V156.262C72.4961 155.828 72.8481 155.476 73.2822 155.476H105.995L106.046 165.514Z" fill="#BFD3FC"/>
<path d="M250.849 180.955H241.917L241.916 180.738L243.381 180.734L243.375 179.123L245.098 179.117L245.071 170.918H250.849C251.284 170.918 251.636 171.27 251.636 171.704V180.169C251.636 180.604 251.284 180.955 250.849 180.955ZM106.123 180.955H72.7602C72.3261 180.955 71.9741 180.604 71.9741 180.169V171.704C71.9741 171.27 72.3261 170.918 72.7602 170.918H106.073L106.123 180.955Z" fill="#BFD3FC"/>
<mask id="mask4_265_2439" style="mask-type:luminance" maskUnits="userSpaceOnUse" x="122" y="196" width="67" height="18">
<path d="M186.634 204.125C164.377 216.784 145.797 215.996 124.787 204.953C123.427 204.239 122.601 202.805 122.674 201.27L122.716 200.382C122.846 197.665 125.623 195.891 128.141 196.917C146.386 204.353 160.106 208.429 182.951 197.157C185.466 195.916 188.435 197.634 188.622 200.432C188.723 201.942 187.95 203.377 186.634 204.125Z" fill="white"/>
</mask>
<g mask="url(#mask4_265_2439)">
<path d="M186.634 204.125C164.377 216.784 145.797 215.996 124.787 204.953C123.427 204.239 122.601 202.805 122.674 201.27L122.716 200.382C122.846 197.665 125.623 195.891 128.141 196.917C146.386 204.353 160.106 208.429 182.951 197.157C185.466 195.916 188.435 197.634 188.622 200.432C188.723 201.942 187.95 203.377 186.634 204.125Z" fill="url(#paint4_linear_265_2439)"/>
</g>
<mask id="mask5_265_2439" style="mask-type:luminance" maskUnits="userSpaceOnUse" x="172" y="193" width="23" height="22">
<path d="M182.417 214.385L194.703 196.972C195.078 196.441 194.751 195.703 194.107 195.624L173.756 193.134C172.998 193.042 172.423 193.8 172.715 194.504C177.365 200.955 179.982 207.534 180.928 214.22C181.187 214.842 182.029 214.934 182.417 214.385Z" fill="white"/>
</mask>
<g mask="url(#mask5_265_2439)">
<path d="M182.417 214.385L194.703 196.972C195.078 196.441 194.751 195.703 194.107 195.624L173.756 193.134C172.998 193.042 172.423 193.8 172.715 194.504C177.365 200.955 179.982 207.534 180.928 214.22C181.187 214.842 182.029 214.934 182.417 214.385Z" fill="url(#paint5_linear_265_2439)"/>
</g>
<mask id="mask6_265_2439" style="mask-type:luminance" maskUnits="userSpaceOnUse" x="115" y="53" width="64" height="20">
<path d="M119.373 72.262C118.673 72.262 117.991 72.0774 117.391 71.7425C116.954 71.4987 116.561 71.174 116.237 70.7832C115.751 70.1966 115.422 69.4595 115.335 68.6187C115.322 68.4854 115.314 68.3545 115.314 68.2223C115.311 67.827 115.367 67.4362 115.475 67.0648C115.752 66.117 116.371 65.2842 117.241 64.7465C125.729 59.5039 133.747 56.2639 141.629 54.8365C144.799 54.2623 147.949 53.9821 151.096 53.9821C154.292 53.9821 157.488 54.2714 160.706 54.8365C166.513 55.8572 172.392 57.7768 178.481 60.5212C176.156 62.6789 174.33 65.3663 173.193 68.3909C173.03 68.3339 172.867 68.2781 172.705 68.2223C171.525 67.8179 170.358 67.4294 169.204 67.0648C162.564 64.963 156.293 63.5834 149.703 63.5834C144.031 63.5834 138.123 64.6041 131.53 67.0648C130.578 67.4203 129.611 67.8065 128.629 68.2223C126.276 69.2214 123.835 70.3993 121.286 71.7732C120.667 72.1082 120.012 72.262 119.373 72.262Z" fill="white"/>
</mask>
<g mask="url(#mask6_265_2439)">
<path d="M119.373 72.262C118.673 72.262 117.991 72.0774 117.391 71.7425C116.954 71.4987 116.561 71.174 116.237 70.7832C115.751 70.1966 115.422 69.4595 115.335 68.6187C115.322 68.4854 115.314 68.3545 115.314 68.2223C115.311 67.827 115.367 67.4362 115.475 67.0648C115.752 66.117 116.371 65.2842 117.241 64.7465C125.729 59.5039 133.747 56.2639 141.629 54.8365C144.799 54.2623 147.949 53.9821 151.096 53.9821C154.292 53.9821 157.488 54.2714 160.706 54.8365C166.513 55.8572 172.392 57.7768 178.481 60.5212C176.156 62.6789 174.33 65.3663 173.193 68.3909C173.03 68.3339 172.867 68.2781 172.705 68.2223C171.525 67.8179 170.358 67.4294 169.204 67.0648C162.564 64.963 156.293 63.5834 149.703 63.5834C144.031 63.5834 138.123 64.6041 131.53 67.0648C130.578 67.4203 129.611 67.8065 128.629 68.2223C126.276 69.2214 123.835 70.3993 121.286 71.7732C120.667 72.1082 120.012 72.262 119.373 72.262Z" fill="url(#paint6_linear_265_2439)"/>
</g>
<mask id="mask7_265_2439" style="mask-type:luminance" maskUnits="userSpaceOnUse" x="109" y="53" width="24" height="23">
<path d="M121.194 54.0449L109.213 72.4011C108.848 72.9605 109.212 73.7067 109.877 73.7636L130.889 75.5659C131.67 75.6331 132.234 74.8311 131.906 74.1179C126.888 67.662 123.951 60.9964 122.731 54.1588C122.441 53.53 121.572 53.4651 121.194 54.0449Z" fill="white"/>
</mask>
<g mask="url(#mask7_265_2439)">
<path d="M121.194 54.0449L109.213 72.4011C108.848 72.9605 109.212 73.7067 109.877 73.7636L130.889 75.5659C131.67 75.6331 132.234 74.8311 131.906 74.1179C126.888 67.662 123.951 60.9964 122.731 54.1588C122.441 53.53 121.572 53.4651 121.194 54.0449Z" fill="url(#paint7_linear_265_2439)"/>
</g>
<mask id="mask8_265_2439" style="mask-type:luminance" maskUnits="userSpaceOnUse" x="301" y="307" width="14" height="12">
<path d="M312.509 308.284C312.509 308.284 313.948 310.552 314.31 316.904C314.344 317.496 313.875 318 313.282 318H302.026C301.574 318 301.25 317.556 301.395 317.126C302.054 315.175 304.049 310.415 308.499 307.696L312.509 308.284Z" fill="white"/>
</mask>
<g mask="url(#mask8_265_2439)">
<path d="M312.509 308.284C312.509 308.284 313.948 310.552 314.31 316.904C314.344 317.496 313.875 318 313.282 318H302.026C301.574 318 301.25 317.556 301.395 317.126C302.054 315.175 304.049 310.415 308.499 307.696L312.509 308.284Z" fill="url(#paint8_linear_265_2439)"/>
</g>
<mask id="mask9_265_2439" style="mask-type:luminance" maskUnits="userSpaceOnUse" x="307" y="303" width="6" height="8">
<path d="M312.997 303.98L312.36 309.318C312.306 309.778 311.944 310.147 311.484 310.201C310.868 310.272 309.974 310.322 309.104 310.178C308.314 310.047 307.744 309.343 307.744 308.542V303.388L312.997 303.98Z" fill="white"/>
</mask>
<g mask="url(#mask9_265_2439)">
<path d="M312.997 303.98L312.36 309.318C312.306 309.778 311.944 310.147 311.484 310.201C310.868 310.272 309.974 310.322 309.104 310.178C308.314 310.047 307.744 309.343 307.744 308.542V303.388L312.997 303.98Z" fill="url(#paint9_linear_265_2439)"/>
</g>
<mask id="mask10_265_2439" style="mask-type:luminance" maskUnits="userSpaceOnUse" x="266" y="307" width="21" height="11">
<path d="M284.659 307.696C284.659 307.696 286.814 311.044 286.767 315.641C286.757 316.723 285.85 317.585 284.767 317.585H267.285C266.467 317.585 266.134 316.534 266.804 316.063C270.113 313.741 276.614 309.401 281.317 307.696H284.659Z" fill="white"/>
</mask>
<g mask="url(#mask10_265_2439)">
<path d="M284.659 307.696C284.659 307.696 286.814 311.044 286.767 315.641C286.757 316.723 285.85 317.585 284.767 317.585H267.285C266.467 317.585 266.134 316.534 266.804 316.063C270.113 313.741 276.614 309.401 281.317 307.696H284.659Z" fill="url(#paint10_linear_265_2439)"/>
</g>
<mask id="mask11_265_2439" style="mask-type:luminance" maskUnits="userSpaceOnUse" x="281" y="299" width="6" height="11">
<path d="M286.459 301.93L285.101 308.523C284.95 309.26 284.228 309.757 283.493 309.593C283.046 309.493 282.52 309.302 281.956 308.95C281.422 308.615 281.149 307.979 281.259 307.357L282.663 299.37L286.459 301.93Z" fill="white"/>
</mask>
<g mask="url(#mask11_265_2439)">
<path d="M286.459 301.93L285.101 308.523C284.95 309.26 284.228 309.757 283.493 309.593C283.046 309.493 282.52 309.302 281.956 308.95C281.422 308.615 281.149 307.979 281.259 307.357L282.663 299.37L286.459 301.93Z" fill="url(#paint11_linear_265_2439)"/>
</g>
<mask id="mask12_265_2439" style="mask-type:luminance" maskUnits="userSpaceOnUse" x="280" y="210" width="37" height="97">
<path d="M310.503 210.266C310.503 210.266 315.224 214.428 316.113 219.436C317.002 224.444 313.595 305.845 313.595 305.845C313.595 305.845 308.874 306.631 306.44 305.156C306.44 305.156 303.554 252.328 301.359 240.12C301.359 240.12 289.852 294.843 286.664 304.732C286.664 304.732 282.115 305.284 280.648 304.418C280.648 304.418 283.662 233.483 287.45 220.871L310.503 210.266Z" fill="white"/>
</mask>
<g mask="url(#mask12_265_2439)">
<path d="M310.503 210.266C310.503 210.266 315.224 214.428 316.113 219.436C317.002 224.444 313.595 305.845 313.595 305.845C313.595 305.845 308.874 306.631 306.44 305.156C306.44 305.156 303.554 252.328 301.359 240.12C301.359 240.12 289.852 294.843 286.664 304.732C286.664 304.732 282.115 305.284 280.648 304.418C280.648 304.418 283.662 233.483 287.45 220.871L310.503 210.266Z" fill="url(#paint12_linear_265_2439)"/>
</g>
<path d="M301.497 238.364C301.457 238.364 301.417 238.359 301.377 238.348C301.124 238.282 300.972 238.024 301.038 237.771L303.044 230.078C303.074 229.961 303.147 229.862 303.246 229.797L307.579 227.019C307.801 226.876 308.093 226.941 308.234 227.161C308.376 227.382 308.312 227.675 308.092 227.816L303.913 230.496L301.955 238.01C301.899 238.223 301.708 238.364 301.497 238.364Z" fill="#7D97F4"/>
<mask id="mask13_265_2439" style="mask-type:luminance" maskUnits="userSpaceOnUse" x="245" y="161" width="44" height="20">
<path d="M263.909 163.231C283.786 161.58 288.981 165.694 288.981 165.694L279.428 180.774C279.428 180.774 259.899 180.387 245.903 169.601C248.522 166.781 250.342 163.664 251.508 161.236C255.117 162.736 259.273 163.616 263.909 163.231Z" fill="white"/>
</mask>
<g mask="url(#mask13_265_2439)">
<path d="M263.909 163.231C283.786 161.58 288.981 165.694 288.981 165.694L279.428 180.774C279.428 180.774 259.899 180.387 245.903 169.601C248.522 166.781 250.342 163.664 251.508 161.236C255.117 162.736 259.273 163.616 263.909 163.231Z" fill="url(#paint13_linear_265_2439)"/>
</g>
<mask id="mask14_265_2439" style="mask-type:luminance" maskUnits="userSpaceOnUse" x="245" y="157" width="7" height="13">
<path d="M245.903 169.601C245.622 169.383 245.342 169.162 245.065 168.937L245.028 157.586C246.929 158.954 249.096 160.234 251.508 161.236C250.892 162.519 250.094 163.992 249.093 165.514C248.198 166.873 247.139 168.27 245.903 169.601Z" fill="white"/>
</mask>
<g mask="url(#mask14_265_2439)">
<path d="M245.903 169.601C245.622 169.383 245.342 169.162 245.065 168.937L245.028 157.586C246.929 158.954 249.096 160.234 251.508 161.236C250.892 162.519 250.094 163.992 249.093 165.514C248.198 166.873 247.139 168.27 245.903 169.601Z" fill="url(#paint14_linear_265_2439)"/>
</g>
<mask id="mask15_265_2439" style="mask-type:luminance" maskUnits="userSpaceOnUse" x="238" y="159" width="75" height="64">
<path d="M257.366 171.973C264.363 164.434 277.692 161.027 285.407 159.627C288.789 159.014 292.121 160.895 293.319 164.116C296.792 173.451 306.236 197.738 308.067 201.912C309.569 205.335 311.137 208.68 312.134 210.771C312.728 212.02 312.209 213.515 310.962 214.116C304.47 217.246 292.787 220.785 288.052 222.167C287.009 222.471 285.973 221.689 285.973 220.604C285.973 219.683 285.722 218.78 285.248 217.991L267.312 188.101C256.132 200.497 246.341 201.63 238.82 198.917C240.085 195.008 240.912 191.093 241.31 187.17C252.42 185.267 257.366 171.973 257.366 171.973Z" fill="white"/>
</mask>
<g mask="url(#mask15_265_2439)">
<path d="M257.366 171.973C264.363 164.434 277.692 161.027 285.407 159.627C288.789 159.014 292.121 160.895 293.319 164.116C296.792 173.451 306.236 197.738 308.067 201.912C309.569 205.335 311.137 208.68 312.134 210.771C312.728 212.02 312.209 213.515 310.962 214.116C304.47 217.246 292.787 220.785 288.052 222.167C287.009 222.471 285.973 221.689 285.973 220.604C285.973 219.683 285.722 218.78 285.248 217.991L267.312 188.101C256.132 200.497 246.341 201.63 238.82 198.917C240.085 195.008 240.912 191.093 241.31 187.17C252.42 185.267 257.366 171.973 257.366 171.973Z" fill="url(#paint15_linear_265_2439)"/>
</g>
<mask id="mask16_265_2439" style="mask-type:luminance" maskUnits="userSpaceOnUse" x="219" y="180" width="23" height="19">
<path d="M219.816 182.897L223.448 180.774C229.941 185.231 236.867 187.931 241.31 187.17C240.912 191.093 240.085 195.008 238.821 198.917C228.912 195.343 219.816 182.897 219.816 182.897Z" fill="white"/>
</mask>
<g mask="url(#mask16_265_2439)">
<path d="M219.816 182.897L223.448 180.774C229.941 185.231 236.867 187.931 241.31 187.17C240.912 191.093 240.085 195.008 238.821 198.917C228.912 195.343 219.816 182.897 219.816 182.897Z" fill="url(#paint16_linear_265_2439)"/>
</g>
<mask id="mask17_265_2439" style="mask-type:luminance" maskUnits="userSpaceOnUse" x="202" y="175" width="23" height="11">
<path d="M202.565 183.661C204.824 182.432 211.527 181.374 211.527 181.374C211.527 181.374 219.232 176.867 221.45 175.98C223.292 175.243 224.084 177.997 224.3 178.953C224.345 179.148 224.364 179.268 224.364 179.268L224.079 181.099L216.296 184.559C214.629 185.3 212.792 185.566 210.984 185.329L202.673 184.242C202.54 184.224 202.433 184.123 202.408 183.991C202.384 183.859 202.447 183.725 202.565 183.661Z" fill="white"/>
</mask>
<g mask="url(#mask17_265_2439)">
<path d="M202.565 183.661C204.824 182.432 211.527 181.374 211.527 181.374C211.527 181.374 219.232 176.867 221.45 175.98C223.292 175.243 224.084 177.997 224.3 178.953C224.345 179.148 224.364 179.268 224.364 179.268L224.079 181.099L216.296 184.559C214.629 185.3 212.792 185.566 210.984 185.329L202.673 184.242C202.54 184.224 202.433 184.123 202.408 183.991C202.384 183.859 202.447 183.725 202.565 183.661Z" fill="url(#paint17_linear_265_2439)"/>
</g>
<mask id="mask18_265_2439" style="mask-type:luminance" maskUnits="userSpaceOnUse" x="265" y="145" width="16" height="20">
<path d="M274.795 145.78L280.755 160.326C280.755 160.326 273.906 165.066 268.396 164.614L265.421 151.536L274.795 145.78Z" fill="white"/>
</mask>
<g mask="url(#mask18_265_2439)">
<path d="M274.795 145.78L280.755 160.326C280.755 160.326 273.906 165.066 268.396 164.614L265.421 151.536L274.795 145.78Z" fill="url(#paint18_linear_265_2439)"/>
</g>
<mask id="mask19_265_2439" style="mask-type:luminance" maskUnits="userSpaceOnUse" x="260" y="135" width="16" height="19">
<path d="M264.725 135.865C264.589 136.058 260.413 151.143 260.413 151.143L269.077 153.344L275.159 139.635C275.159 139.635 267.011 132.627 264.725 135.865Z" fill="white"/>
</mask>
<g mask="url(#mask19_265_2439)">
<path d="M264.725 135.865C264.589 136.058 260.413 151.143 260.413 151.143L269.077 153.344L275.159 139.635C275.159 139.635 267.011 132.627 264.725 135.865Z" fill="url(#paint19_linear_265_2439)"/>
</g>
<mask id="mask20_265_2439" style="mask-type:luminance" maskUnits="userSpaceOnUse" x="259" y="129" width="21" height="29">
<path d="M271.896 141.718L269.26 149.185C269.226 149.281 269.18 149.369 269.122 149.452C268.765 149.961 267.406 151.619 265.794 150.125C264.331 148.77 262.975 147.554 261.724 147.333C261.162 147.235 260.618 147.578 260.465 148.127C260.087 149.498 259.29 152.603 259.008 155.406C258.951 155.974 259.344 156.488 259.906 156.595C261.598 156.916 265.186 157.494 268.181 157.283C268.587 157.254 268.945 157.011 269.113 156.64C269.939 154.837 272.468 149.364 273.408 147.948C274.291 146.62 276.456 146.656 277.363 146.737C277.661 146.763 277.954 146.668 278.178 146.471C278.972 145.775 280.484 143.997 278.358 141.87C277.913 141.425 277.925 140.706 278.383 140.276C279.296 139.417 280.273 137.895 278.751 136.007C277.205 134.087 275.165 134.393 273.914 134.85C273.408 135.034 272.857 134.82 272.582 134.357C272.426 134.094 272.153 133.895 271.68 133.935C271.042 133.989 270.505 133.457 270.517 132.818C270.54 131.588 270.099 130.035 267.966 129.371C264.182 128.193 261.821 131.85 261.588 134.578C261.354 137.306 265.53 138.35 267.985 138.166C269.853 138.026 271.239 139.877 271.796 140.771C271.973 141.055 272.008 141.402 271.896 141.718Z" fill="white"/>
</mask>
<g mask="url(#mask20_265_2439)">
<path d="M271.896 141.718L269.26 149.185C269.226 149.281 269.18 149.369 269.122 149.452C268.765 149.961 267.406 151.619 265.794 150.125C264.331 148.77 262.975 147.554 261.724 147.333C261.162 147.235 260.618 147.578 260.465 148.127C260.087 149.498 259.29 152.603 259.008 155.406C258.951 155.974 259.344 156.488 259.906 156.595C261.598 156.916 265.186 157.494 268.181 157.283C268.587 157.254 268.945 157.011 269.113 156.64C269.939 154.837 272.468 149.364 273.408 147.948C274.291 146.62 276.456 146.656 277.363 146.737C277.661 146.763 277.954 146.668 278.178 146.471C278.972 145.775 280.484 143.997 278.358 141.87C277.913 141.425 277.925 140.706 278.383 140.276C279.296 139.417 280.273 137.895 278.751 136.007C277.205 134.087 275.165 134.393 273.914 134.85C273.408 135.034 272.857 134.82 272.582 134.357C272.426 134.094 272.153 133.895 271.68 133.935C271.042 133.989 270.505 133.457 270.517 132.818C270.54 131.588 270.099 130.035 267.966 129.371C264.182 128.193 261.821 131.85 261.588 134.578C261.354 137.306 265.53 138.35 267.985 138.166C269.853 138.026 271.239 139.877 271.796 140.771C271.973 141.055 272.008 141.402 271.896 141.718Z" fill="url(#paint20_linear_265_2439)"/>
</g>
<mask id="mask21_265_2439" style="mask-type:luminance" maskUnits="userSpaceOnUse" x="272" y="145" width="6" height="7">
<path d="M272.422 150.657C272.422 150.657 273.034 145.921 275.003 145.689C276.974 145.457 278.891 147.077 276.933 149.734C274.496 153.042 272.422 150.657 272.422 150.657Z" fill="white"/>
</mask>
<g mask="url(#mask21_265_2439)">
<path d="M272.422 150.657C272.422 150.657 273.034 145.921 275.003 145.689C276.974 145.457 278.891 147.077 276.933 149.734C274.496 153.042 272.422 150.657 272.422 150.657Z" fill="url(#paint21_linear_265_2439)"/>
</g>
<mask id="mask22_265_2439" style="mask-type:luminance" maskUnits="userSpaceOnUse" x="109" y="115" width="137" height="65">
<path d="M243.375 179.123L243.174 117.004L227.482 117.054C227.358 116.509 227.214 115.973 227.049 115.445L244.892 115.387L244.898 117.475L244.903 118.633L244.979 142.345L244.982 143.504L245.021 155.476L245.028 157.586L245.064 168.937L245.071 170.918L245.097 179.117L243.375 179.123ZM109.107 117.435L109.101 115.824L116.013 115.803L117.171 115.798L186.435 115.576C186.274 116.105 186.133 116.642 186.013 117.188L109.107 117.435Z" fill="white"/>
</mask>
<g mask="url(#mask22_265_2439)">
<path d="M243.375 179.123L243.174 117.004L227.482 117.054C227.358 116.509 227.214 115.973 227.049 115.445L244.892 115.387L244.898 117.475L244.903 118.633L244.979 142.345L244.982 143.504L245.021 155.476L245.028 157.586L245.064 168.937L245.071 170.918L245.097 179.117L243.375 179.123ZM109.107 117.435L109.101 115.824L116.013 115.803L117.171 115.798L186.435 115.576C186.274 116.105 186.133 116.642 186.013 117.188L109.107 117.435Z" fill="url(#paint22_linear_265_2439)"/>
</g>
<mask id="mask23_265_2439" style="mask-type:luminance" maskUnits="userSpaceOnUse" x="157" y="127" width="41" height="41">
<path d="M197.117 147.152C197.152 158.152 188.264 167.1 177.263 167.135C166.262 167.17 157.316 158.281 157.281 147.281C157.246 136.28 166.134 127.333 177.135 127.298C188.135 127.262 197.082 136.152 197.117 147.152Z" fill="white"/>
</mask>
<g mask="url(#mask23_265_2439)">
<path d="M197.117 147.152C197.152 158.152 188.264 167.1 177.263 167.135C166.262 167.17 157.316 158.281 157.281 147.281C157.246 136.28 166.134 127.333 177.135 127.298C188.135 127.262 197.082 136.152 197.117 147.152Z" fill="url(#paint23_linear_265_2439)"/>
</g>
<path d="M175.228 160.659L175.223 158.553C173.026 158.472 170.853 157.961 169.308 157.291C168.756 157.052 168.474 156.434 168.63 155.853L169.159 153.89C169.353 153.169 170.135 152.795 170.823 153.08C172.355 153.717 174.246 154.219 176.283 154.212C178.398 154.205 179.973 153.484 179.969 152.014C179.964 150.688 178.743 149.903 175.801 149.124C171.603 147.99 168.587 146.172 168.575 142.48C168.564 139.147 170.994 136.594 175.22 135.9L175.213 133.794C175.212 133.116 175.759 132.564 176.437 132.562L177.674 132.559C178.352 132.556 178.903 133.103 178.906 133.781L178.911 135.672C180.944 135.747 182.424 136.09 183.599 136.498C184.201 136.708 184.531 137.355 184.367 137.97L183.881 139.786C183.693 140.486 182.946 140.871 182.267 140.617C181.185 140.213 179.656 139.793 177.671 139.798C175.161 139.806 174.448 140.849 174.451 141.781C174.455 142.928 175.963 143.71 179.228 144.704C183.892 146.087 185.833 148.017 185.845 151.494C185.855 154.683 183.499 157.559 178.914 158.29L178.92 160.647C178.923 161.325 178.375 161.876 177.698 161.879L176.46 161.882C175.782 161.884 175.231 161.336 175.228 160.659Z" fill="white"/>
<path d="M112.858 132.155C112.847 132.124 112.84 132.092 112.84 132.057L112.8 119.77C112.8 119.62 112.921 119.498 113.07 119.498L146.185 119.391C146.334 119.391 146.457 119.511 146.456 119.661C146.457 119.812 146.337 119.932 146.186 119.934L113.343 120.038L113.382 132.056C113.382 132.205 113.262 132.327 113.111 132.327C112.996 132.328 112.898 132.257 112.858 132.155Z" fill="white"/>
<path d="M207.76 175.378C207.749 175.347 207.742 175.315 207.742 175.28C207.742 175.131 207.862 175.009 208.012 175.009L240.856 174.903L240.817 162.885C240.817 162.736 240.937 162.614 241.087 162.614C241.237 162.613 241.359 162.734 241.359 162.884L241.399 175.172C241.399 175.244 241.37 175.313 241.32 175.364C241.269 175.414 241.201 175.443 241.129 175.444L208.014 175.55C207.899 175.551 207.8 175.479 207.76 175.378Z" fill="white"/>
<path d="M243.381 180.734L107.589 181.171L107.384 117.441L243.174 117.004L243.381 180.734Z" fill="#7D97F4"/>
<mask id="mask24_265_2439" style="mask-type:luminance" maskUnits="userSpaceOnUse" x="155" y="128" width="41" height="41">
<path d="M195.4 148.768C195.436 159.769 186.546 168.716 175.546 168.751C164.546 168.787 155.599 159.897 155.564 148.897C155.529 137.896 164.417 128.949 175.418 128.914C186.419 128.879 195.365 137.768 195.4 148.768Z" fill="white"/>
</mask>
<g mask="url(#mask24_265_2439)">
<path d="M195.4 148.768C195.436 159.769 186.546 168.716 175.546 168.751C164.546 168.787 155.599 159.897 155.564 148.897C155.529 137.896 164.417 128.949 175.418 128.914C186.419 128.879 195.365 137.768 195.4 148.768Z" fill="url(#paint24_linear_265_2439)"/>
</g>
<path d="M173.512 162.275L173.505 160.17C171.31 160.088 169.136 159.577 167.591 158.906C167.04 158.667 166.758 158.051 166.914 157.47L167.442 155.506C167.636 154.786 168.417 154.411 169.107 154.697C170.639 155.334 172.53 155.835 174.567 155.828C176.681 155.821 178.257 155.1 178.251 153.63C178.248 152.303 177.026 151.52 174.085 150.74C169.887 149.607 166.87 147.789 166.859 144.097C166.848 140.763 169.277 138.21 173.504 137.515L173.497 135.409C173.495 134.732 174.043 134.181 174.721 134.178L175.958 134.174C176.636 134.172 177.187 134.72 177.189 135.397L177.195 137.289C179.227 137.364 180.707 137.706 181.883 138.114C182.484 138.324 182.815 138.971 182.651 139.586L182.164 141.402C181.976 142.103 181.23 142.488 180.551 142.234C179.469 141.829 177.94 141.408 175.954 141.415C173.445 141.423 172.732 142.465 172.735 143.397C172.738 144.543 174.247 145.327 177.512 146.32C182.176 147.703 184.117 149.633 184.128 153.109C184.139 156.3 181.783 159.174 177.196 159.907L177.204 162.264C177.206 162.941 176.658 163.493 175.981 163.494L174.743 163.499C174.066 163.501 173.514 162.953 173.512 162.275Z" fill="white"/>
<path d="M111.142 133.772C111.13 133.741 111.123 133.708 111.123 133.674L111.083 121.386C111.083 121.237 111.204 121.115 111.353 121.114L144.468 121.008C144.618 121.007 144.741 121.128 144.739 121.278C144.741 121.427 144.62 121.549 144.469 121.549L111.626 121.655L111.664 133.673C111.666 133.822 111.545 133.944 111.395 133.944C111.279 133.945 111.181 133.873 111.142 133.772Z" fill="white"/>
<path d="M206.043 176.995C206.032 176.964 206.025 176.931 206.025 176.897C206.025 176.747 206.146 176.626 206.295 176.626L239.139 176.52L239.1 164.502C239.1 164.353 239.221 164.231 239.37 164.231C239.52 164.23 239.642 164.351 239.642 164.501L239.682 176.789C239.682 176.86 239.653 176.93 239.603 176.98C239.552 177.031 239.484 177.06 239.412 177.06L206.297 177.167C206.182 177.168 206.083 177.096 206.043 176.995Z" fill="white"/>
<mask id="mask25_265_2439" style="mask-type:luminance" maskUnits="userSpaceOnUse" x="105" y="118" width="137" height="66">
<path d="M106.136 183.249L106.124 180.955L106.074 170.918L106.046 165.514L105.995 155.476L105.933 143.504L105.928 142.345L105.812 119.52L107.392 119.512L185.683 119.115C185.574 119.984 185.518 120.871 185.518 121.77C185.518 123.436 185.709 125.056 186.072 126.609L119.153 126.95C119.159 126.95 119.216 127.063 119.217 127.165C119.233 130.394 118.797 133.808 113.799 133.833L113.979 169.245C113.979 169.245 114.02 169.322 114.063 169.322C114.071 169.322 114.08 169.322 114.088 169.322C117.041 169.322 119.392 172.003 119.408 175.222C119.409 175.325 119.404 175.268 119.4 175.685L229.005 175.128C228.997 174.711 229.008 174.768 229.008 174.665C228.991 171.436 231.441 168.643 234.356 168.628L234.173 132.401C234.164 132.401 234.156 132.401 234.148 132.401C231.243 132.401 228.78 129.829 228.763 126.608C228.763 126.506 228.752 126.393 228.757 126.393L227.502 126.4C227.833 124.909 228.007 123.36 228.007 121.77C228.007 120.797 227.941 119.838 227.815 118.9L241.602 118.83L241.916 180.738L241.917 180.955L241.925 182.56L106.136 183.249Z" fill="white"/>
</mask>
<g mask="url(#mask25_265_2439)">
<path d="M106.136 183.249L106.124 180.955L106.074 170.918L106.046 165.514L105.995 155.476L105.933 143.504L105.928 142.345L105.812 119.52L107.392 119.512L185.683 119.115C185.574 119.984 185.518 120.871 185.518 121.77C185.518 123.436 185.709 125.056 186.072 126.609L119.153 126.95C119.159 126.95 119.216 127.063 119.217 127.165C119.233 130.394 118.797 133.808 113.799 133.833L113.979 169.245C113.979 169.245 114.02 169.322 114.063 169.322C114.071 169.322 114.08 169.322 114.088 169.322C117.041 169.322 119.392 172.003 119.408 175.222C119.409 175.325 119.404 175.268 119.4 175.685L229.005 175.128C228.997 174.711 229.008 174.768 229.008 174.665C228.991 171.436 231.441 168.643 234.356 168.628L234.173 132.401C234.164 132.401 234.156 132.401 234.148 132.401C231.243 132.401 228.78 129.829 228.763 126.608C228.763 126.506 228.752 126.393 228.757 126.393L227.502 126.4C227.833 124.909 228.007 123.36 228.007 121.77C228.007 120.797 227.941 119.838 227.815 118.9L241.602 118.83L241.916 180.738L241.917 180.955L241.925 182.56L106.136 183.249Z" fill="url(#paint25_linear_265_2439)"/>
</g>
<path d="M234.173 132.401L234.356 168.628C231.441 168.643 228.99 171.436 229.007 174.665C229.007 174.768 228.997 174.711 229.005 175.127L119.4 175.685C119.403 175.268 119.409 175.325 119.408 175.222C119.392 171.993 117.027 169.307 114.063 169.322C114.019 169.322 113.978 169.245 113.978 169.245L113.798 133.833C118.797 133.808 119.232 130.394 119.216 127.165C119.215 127.063 119.158 126.95 119.153 126.95L228.757 126.393C228.752 126.393 228.762 126.506 228.762 126.608C228.78 129.838 231.256 132.416 234.173 132.401Z" fill="#91B3FA"/>
<mask id="mask26_265_2439" style="mask-type:luminance" maskUnits="userSpaceOnUse" x="153" y="130" width="41" height="41">
<path d="M193.824 150.746C193.88 161.746 185.008 170.71 174.008 170.766C163.007 170.821 154.044 161.949 153.988 150.949C153.932 139.948 162.804 130.985 173.805 130.929C184.805 130.874 193.768 139.746 193.824 150.746Z" fill="white"/>
</mask>
<g mask="url(#mask26_265_2439)">
<path d="M193.824 150.746C193.88 161.746 185.008 170.71 174.008 170.766C163.007 170.821 154.044 161.949 153.988 150.949C153.932 139.948 162.804 130.985 173.805 130.929C184.805 130.874 193.768 139.746 193.824 150.746Z" fill="url(#paint26_linear_265_2439)"/>
</g>
<mask id="mask27_265_2439" style="mask-type:luminance" maskUnits="userSpaceOnUse" x="165" y="136" width="18" height="30">
<path d="M171.962 164.295L171.951 162.188C169.756 162.112 167.581 161.604 166.035 160.938C165.483 160.698 165.199 160.082 165.355 159.501L165.88 157.537C166.073 156.816 166.853 156.44 167.542 156.725C169.076 157.358 170.968 157.856 173.005 157.846C175.119 157.835 176.692 157.11 176.686 155.64C176.679 154.314 175.456 153.533 172.513 152.758C168.313 151.632 165.293 149.82 165.274 146.128C165.257 142.794 167.682 140.238 171.908 139.535L171.897 137.429C171.894 136.751 172.441 136.198 173.119 136.195L174.356 136.189C175.034 136.186 175.585 136.733 175.588 137.409L175.599 139.301C177.631 139.372 179.111 139.712 180.287 140.118C180.889 140.327 181.221 140.973 181.058 141.589L180.575 143.405C180.389 144.107 179.643 144.493 178.963 144.24C177.881 143.837 176.351 143.42 174.365 143.429C171.856 143.443 171.144 144.485 171.149 145.417C171.155 146.564 172.664 147.344 175.931 148.332C180.598 149.706 182.543 151.632 182.561 155.109C182.578 158.299 180.226 161.178 175.642 161.918L175.653 164.275C175.658 164.953 175.111 165.506 174.433 165.509L173.195 165.515C172.517 165.519 171.966 164.973 171.962 164.295Z" fill="white"/>
</mask>
<g mask="url(#mask27_265_2439)">
<path d="M171.962 164.295L171.951 162.188C169.756 162.112 167.581 161.604 166.035 160.938C165.483 160.698 165.199 160.082 165.355 159.501L165.88 157.537C166.073 156.816 166.853 156.44 167.542 156.725C169.076 157.358 170.968 157.856 173.005 157.846C175.119 157.835 176.692 157.11 176.686 155.64C176.679 154.314 175.456 153.533 172.513 152.758C168.313 151.632 165.293 149.82 165.274 146.128C165.257 142.794 167.682 140.238 171.908 139.535L171.897 137.429C171.894 136.751 172.441 136.198 173.119 136.195L174.356 136.189C175.034 136.186 175.585 136.733 175.588 137.409L175.599 139.301C177.631 139.372 179.111 139.712 180.287 140.118C180.889 140.327 181.221 140.973 181.058 141.589L180.575 143.405C180.389 144.107 179.643 144.493 178.963 144.24C177.881 143.837 176.351 143.42 174.365 143.429C171.856 143.443 171.144 144.485 171.149 145.417C171.155 146.564 172.664 147.344 175.931 148.332C180.598 149.706 182.543 151.632 182.561 155.109C182.578 158.299 180.226 161.178 175.642 161.918L175.653 164.275C175.658 164.953 175.111 165.506 174.433 165.509L173.195 165.515C172.517 165.519 171.966 164.973 171.962 164.295Z" fill="url(#paint27_linear_265_2439)"/>
</g>
<path d="M109.224 135.917C109.187 135.87 109.164 135.812 109.164 135.748L109.101 123.461C109.101 123.389 109.13 123.319 109.18 123.268C109.23 123.218 109.299 123.188 109.371 123.188L142.902 123.017C143.051 123.017 143.173 123.138 143.174 123.287C143.175 123.437 143.054 123.559 142.904 123.56L109.644 123.728L109.705 135.745C109.706 135.895 109.585 136.017 109.436 136.017C109.351 136.018 109.274 135.978 109.224 135.917Z" fill="#91B3FA"/>
<path d="M204.623 178.961C204.586 178.914 204.563 178.856 204.563 178.791C204.562 178.642 204.683 178.52 204.832 178.52L237.676 178.353L237.614 166.336C237.614 166.187 237.734 166.065 237.884 166.064C238.034 166.064 238.156 166.185 238.157 166.334L238.219 178.622C238.219 178.693 238.191 178.762 238.141 178.813C238.091 178.864 238.021 178.893 237.949 178.894L204.836 179.061C204.75 179.062 204.673 179.023 204.623 178.961Z" fill="#91B3FA"/>
<mask id="mask28_265_2439" style="mask-type:luminance" maskUnits="userSpaceOnUse" x="127" y="147" width="12" height="12">
<path d="M138.876 152.868C138.892 155.985 136.379 158.524 133.263 158.539C130.146 158.555 127.608 156.042 127.592 152.927C127.576 149.81 130.089 147.271 133.205 147.256C136.321 147.24 138.86 149.753 138.876 152.868Z" fill="white"/>
</mask>
<g mask="url(#mask28_265_2439)">
<path d="M138.876 152.868C138.892 155.985 136.379 158.524 133.263 158.539C130.146 158.555 127.608 156.042 127.592 152.927C127.576 149.81 130.089 147.271 133.205 147.256C136.321 147.24 138.86 149.753 138.876 152.868Z" fill="url(#paint28_linear_265_2439)"/>
</g>
<mask id="mask29_265_2439" style="mask-type:luminance" maskUnits="userSpaceOnUse" x="212" y="146" width="12" height="13">
<path d="M223.763 152.438C223.778 155.553 221.265 158.092 218.15 158.108C215.034 158.124 212.495 155.61 212.479 152.495C212.463 149.379 214.977 146.84 218.093 146.824C221.208 146.808 223.748 149.321 223.763 152.438Z" fill="white"/>
</mask>
<g mask="url(#mask29_265_2439)">
<path d="M223.763 152.438C223.778 155.553 221.265 158.092 218.15 158.108C215.034 158.124 212.495 155.61 212.479 152.495C212.463 149.379 214.977 146.84 218.093 146.824C221.208 146.808 223.748 149.321 223.763 152.438Z" fill="url(#paint29_linear_265_2439)"/>
</g>
<mask id="mask30_265_2439" style="mask-type:luminance" maskUnits="userSpaceOnUse" x="146" y="77" width="25" height="25">
<path d="M158.765 101.581C152.214 101.581 146.904 96.2712 146.904 89.7207C146.904 89.4803 146.911 89.2422 146.926 89.0052C146.949 88.6145 146.991 88.2283 147.051 87.8478C147.949 82.1882 152.851 77.8603 158.765 77.8603C164.717 77.8603 169.645 82.2463 170.495 87.9628C170.551 88.3433 170.59 88.7307 170.609 89.1214C170.619 89.3197 170.624 89.5202 170.624 89.7207C170.624 96.2712 165.314 101.581 158.765 101.581ZM158.765 78.2556C152.432 78.2556 147.298 83.3889 147.298 89.7207C147.298 96.0524 152.432 101.187 158.765 101.187C165.096 101.187 170.23 96.0524 170.23 89.7207C170.23 83.3889 165.096 78.2556 158.765 78.2556Z" fill="white"/>
</mask>
<g mask="url(#mask30_265_2439)">
<path d="M158.765 101.581C152.214 101.581 146.904 96.2712 146.904 89.7207C146.904 89.4803 146.911 89.2422 146.926 89.0052C146.949 88.6145 146.991 88.2283 147.051 87.8478C147.949 82.1882 152.851 77.8603 158.765 77.8603C164.717 77.8603 169.645 82.2463 170.495 87.9628C170.551 88.3433 170.59 88.7307 170.609 89.1214C170.619 89.3197 170.624 89.5202 170.624 89.7207C170.624 96.2712 165.314 101.581 158.765 101.581ZM158.765 78.2556C152.432 78.2556 147.298 83.3889 147.298 89.7207C147.298 96.0524 152.432 101.187 158.765 101.187C165.096 101.187 170.23 96.0524 170.23 89.7207C170.23 83.3889 165.096 78.2556 158.765 78.2556Z" fill="url(#paint30_linear_265_2439)"/>
</g>
<mask id="mask31_265_2439" style="mask-type:luminance" maskUnits="userSpaceOnUse" x="147" y="78" width="24" height="24">
<path d="M158.764 101.187C152.431 101.187 147.298 96.0521 147.298 89.7203C147.298 83.3885 152.431 78.2552 158.764 78.2552C165.096 78.2552 170.229 83.3885 170.229 89.7203C170.229 96.0521 165.096 101.187 158.764 101.187ZM159.014 80.2659C153.654 80.2659 149.31 84.6109 149.31 89.9698C149.31 95.3298 153.654 99.6748 159.014 99.6748C164.372 99.6748 168.717 95.3298 168.717 89.9698C168.717 84.6109 164.372 80.2659 159.014 80.2659ZM158.764 78.6915C154.575 78.6915 150.8 81.0155 148.912 84.7567C148.8 84.9766 148.889 85.2443 149.109 85.3548C149.173 85.3878 149.241 85.4027 149.309 85.4027C149.471 85.4027 149.629 85.3138 149.707 85.1577C151.443 81.7184 154.914 79.5813 158.764 79.5813C159.379 79.5813 159.994 79.6371 160.594 79.7465C160.62 79.751 160.647 79.7533 160.673 79.7533C160.885 79.7533 161.072 79.6029 161.111 79.3876C161.155 79.1461 160.995 78.9137 160.753 78.8704C160.102 78.7519 159.433 78.6915 158.764 78.6915Z" fill="white"/>
</mask>
<g mask="url(#mask31_265_2439)">
<path d="M158.764 101.187C152.431 101.187 147.298 96.0521 147.298 89.7203C147.298 83.3885 152.431 78.2552 158.764 78.2552C165.096 78.2552 170.229 83.3885 170.229 89.7203C170.229 96.0521 165.096 101.187 158.764 101.187ZM159.014 80.2659C153.654 80.2659 149.31 84.6109 149.31 89.9698C149.31 95.3298 153.654 99.6748 159.014 99.6748C164.372 99.6748 168.717 95.3298 168.717 89.9698C168.717 84.6109 164.372 80.2659 159.014 80.2659ZM158.764 78.6915C154.575 78.6915 150.8 81.0155 148.912 84.7567C148.8 84.9766 148.889 85.2443 149.109 85.3548C149.173 85.3878 149.241 85.4027 149.309 85.4027C149.471 85.4027 149.629 85.3138 149.707 85.1577C151.443 81.7184 154.914 79.5813 158.764 79.5813C159.379 79.5813 159.994 79.6371 160.594 79.7465C160.62 79.751 160.647 79.7533 160.673 79.7533C160.885 79.7533 161.072 79.6029 161.111 79.3876C161.155 79.1461 160.995 78.9137 160.753 78.8704C160.102 78.7519 159.433 78.6915 158.764 78.6915Z" fill="url(#paint31_linear_265_2439)"/>
</g>
<mask id="mask32_265_2439" style="mask-type:luminance" maskUnits="userSpaceOnUse" x="148" y="78" width="14" height="8">
<path d="M149.309 85.4028C149.242 85.4028 149.173 85.388 149.11 85.355C148.89 85.2445 148.801 84.9768 148.912 84.7569C150.8 81.0157 154.576 78.6917 158.764 78.6917C159.433 78.6917 160.102 78.7521 160.754 78.8706C160.995 78.9138 161.156 79.1462 161.111 79.3878C161.073 79.6031 160.886 79.7534 160.674 79.7534C160.648 79.7534 160.62 79.7512 160.594 79.7466C159.995 79.6373 159.38 79.5814 158.764 79.5814C154.914 79.5814 151.444 81.7186 149.708 85.1579C149.629 85.314 149.472 85.4028 149.309 85.4028Z" fill="white"/>
</mask>
<g mask="url(#mask32_265_2439)">
<path d="M149.309 85.4028C149.242 85.4028 149.173 85.388 149.11 85.355C148.89 85.2445 148.801 84.9768 148.912 84.7569C150.8 81.0157 154.576 78.6917 158.764 78.6917C159.433 78.6917 160.102 78.7521 160.754 78.8706C160.995 78.9138 161.156 79.1462 161.111 79.3878C161.073 79.6031 160.886 79.7534 160.674 79.7534C160.648 79.7534 160.62 79.7512 160.594 79.7466C159.995 79.6373 159.38 79.5814 158.764 79.5814C154.914 79.5814 151.444 81.7186 149.708 85.1579C149.629 85.314 149.472 85.4028 149.309 85.4028Z" fill="url(#paint32_linear_265_2439)"/>
</g>
<mask id="mask33_265_2439" style="mask-type:luminance" maskUnits="userSpaceOnUse" x="149" y="80" width="20" height="20">
<path d="M159.014 99.6748C153.654 99.6748 149.31 95.3298 149.31 89.9698C149.31 84.611 153.654 80.266 159.014 80.266C164.373 80.266 168.718 84.611 168.718 89.9698C168.718 95.3298 164.373 99.6748 159.014 99.6748Z" fill="white"/>
</mask>
<g mask="url(#mask33_265_2439)">
<path d="M159.014 99.6748C153.654 99.6748 149.31 95.3298 149.31 89.9698C149.31 84.611 153.654 80.266 159.014 80.266C164.373 80.266 168.718 84.611 168.718 89.9698C168.718 95.3298 164.373 99.6748 159.014 99.6748Z" fill="url(#paint33_linear_265_2439)"/>
</g>
<mask id="mask34_265_2439" style="mask-type:luminance" maskUnits="userSpaceOnUse" x="154" y="83" width="10" height="15">
<path d="M158.062 97.1846V96.1286C156.961 96.0853 155.872 95.8244 155.1 95.4861C154.823 95.3653 154.683 95.0554 154.761 94.7649L155.03 93.7818C155.128 93.4207 155.521 93.2338 155.865 93.3785C156.633 93.7009 157.58 93.9549 158.601 93.9549C159.661 93.9549 160.452 93.595 160.452 92.859C160.452 92.1937 159.841 91.7984 158.367 91.4031C156.265 90.8289 154.756 89.9119 154.756 88.0618C154.756 86.3906 155.978 85.1146 158.098 84.7729V83.7179C158.098 83.3773 158.373 83.1028 158.713 83.1028H159.333C159.673 83.1028 159.948 83.3773 159.948 83.7179V84.6658C160.967 84.7068 161.708 84.8799 162.296 85.0873C162.598 85.1932 162.762 85.5179 162.679 85.8266L162.433 86.7357C162.337 87.0866 161.962 87.278 161.623 87.1504C161.081 86.9454 160.315 86.7323 159.319 86.7323C158.062 86.7323 157.703 87.2529 157.703 87.72C157.703 88.2953 158.457 88.6906 160.092 89.193C162.428 89.8936 163.398 90.8643 163.398 92.6073C163.398 94.2067 162.212 95.6433 159.913 96.0033V97.1846C159.913 97.5241 159.637 97.7998 159.298 97.7998H158.677C158.337 97.7998 158.062 97.5241 158.062 97.1846Z" fill="white"/>
</mask>
<g mask="url(#mask34_265_2439)">
<path d="M158.062 97.1846V96.1286C156.961 96.0853 155.872 95.8244 155.1 95.4861C154.823 95.3653 154.683 95.0554 154.761 94.7649L155.03 93.7818C155.128 93.4207 155.521 93.2338 155.865 93.3785C156.633 93.7009 157.58 93.9549 158.601 93.9549C159.661 93.9549 160.452 93.595 160.452 92.859C160.452 92.1937 159.841 91.7984 158.367 91.4031C156.265 90.8289 154.756 89.9119 154.756 88.0618C154.756 86.3906 155.978 85.1146 158.098 84.7729V83.7179C158.098 83.3773 158.373 83.1028 158.713 83.1028H159.333C159.673 83.1028 159.948 83.3773 159.948 83.7179V84.6658C160.967 84.7068 161.708 84.8799 162.296 85.0873C162.598 85.1932 162.762 85.5179 162.679 85.8266L162.433 86.7357C162.337 87.0866 161.962 87.278 161.623 87.1504C161.081 86.9454 160.315 86.7323 159.319 86.7323C158.062 86.7323 157.703 87.2529 157.703 87.72C157.703 88.2953 158.457 88.6906 160.092 89.193C162.428 89.8936 163.398 90.8643 163.398 92.6073C163.398 94.2067 162.212 95.6433 159.913 96.0033V97.1846C159.913 97.5241 159.637 97.7998 159.298 97.7998H158.677C158.337 97.7998 158.062 97.5241 158.062 97.1846Z" fill="url(#paint34_linear_265_2439)"/>
</g>
<mask id="mask35_265_2439" style="mask-type:luminance" maskUnits="userSpaceOnUse" x="171" y="55" width="43" height="42">
<path d="M192.524 96.3018C186.281 96.3018 180.685 93.5312 176.898 89.152C176.574 88.7761 176.263 88.3888 175.964 87.9889C173.398 84.5485 171.878 80.2798 171.878 75.6557C171.878 73.0993 172.343 70.6511 173.193 68.3909C174.33 65.3663 176.156 62.6789 178.481 60.5212C182.165 57.1013 187.1 55.0097 192.524 55.0097C200.861 55.0097 208.044 59.9505 211.303 67.0649C211.477 67.4442 211.64 67.8305 211.792 68.2223C212.194 69.267 212.515 70.3527 212.745 71.4702C213.024 72.8225 213.17 74.2215 213.17 75.6557C213.17 77.1618 213.008 78.6302 212.703 80.0451C212.054 83.0401 210.755 85.7948 208.961 88.1507C208.66 88.5471 208.344 88.9322 208.015 89.3047C204.232 93.5961 198.694 96.3018 192.524 96.3018ZM192.524 55.6966C181.5 55.6966 172.564 64.6327 172.564 75.6557C172.564 86.6799 181.5 95.616 192.524 95.616C203.547 95.616 212.483 86.6799 212.483 75.6557C212.483 64.6327 203.547 55.6966 192.524 55.6966Z" fill="white"/>
</mask>
<g mask="url(#mask35_265_2439)">
<path d="M192.524 96.3018C186.281 96.3018 180.685 93.5312 176.898 89.152C176.574 88.7761 176.263 88.3888 175.964 87.9889C173.398 84.5485 171.878 80.2798 171.878 75.6557C171.878 73.0993 172.343 70.6511 173.193 68.3909C174.33 65.3663 176.156 62.6789 178.481 60.5212C182.165 57.1013 187.1 55.0097 192.524 55.0097C200.861 55.0097 208.044 59.9505 211.303 67.0649C211.477 67.4442 211.64 67.8305 211.792 68.2223C212.194 69.267 212.515 70.3527 212.745 71.4702C213.024 72.8225 213.17 74.2215 213.17 75.6557C213.17 77.1618 213.008 78.6302 212.703 80.0451C212.054 83.0401 210.755 85.7948 208.961 88.1507C208.66 88.5471 208.344 88.9322 208.015 89.3047C204.232 93.5961 198.694 96.3018 192.524 96.3018ZM192.524 55.6966C181.5 55.6966 172.564 64.6327 172.564 75.6557C172.564 86.6799 181.5 95.616 192.524 95.616C203.547 95.616 212.483 86.6799 212.483 75.6557C212.483 64.6327 203.547 55.6966 192.524 55.6966Z" fill="url(#paint35_linear_265_2439)"/>
</g>
<mask id="mask36_265_2439" style="mask-type:luminance" maskUnits="userSpaceOnUse" x="172" y="55" width="41" height="41">
<path d="M192.524 95.616C181.5 95.616 172.564 86.6799 172.564 75.6557C172.564 64.6327 181.5 55.6967 192.524 55.6967C203.547 55.6967 212.483 64.6327 212.483 75.6557C212.483 86.6799 203.547 95.616 192.524 95.616ZM192.959 59.1975C183.629 59.1975 176.066 66.7607 176.066 76.0909C176.066 85.4211 183.629 92.9844 192.959 92.9844C202.288 92.9844 209.852 85.4211 209.852 76.0909C209.852 66.7607 202.288 59.1975 192.959 59.1975ZM192.524 56.7857C185.359 56.7857 178.899 60.7627 175.668 67.164C175.557 67.3839 175.646 67.6516 175.864 67.7621C175.929 67.7951 175.998 67.8099 176.065 67.8099C176.228 67.8099 176.385 67.7211 176.462 67.5661C179.542 61.4656 185.696 57.6766 192.524 57.6766C193.613 57.6766 194.705 57.7746 195.768 57.9682C195.795 57.9728 195.821 57.9751 195.847 57.9751C196.059 57.9751 196.247 57.8258 196.286 57.6094C196.33 57.3679 196.17 57.1355 195.928 57.0922C194.812 56.8894 193.667 56.7857 192.524 56.7857Z" fill="white"/>
</mask>
<g mask="url(#mask36_265_2439)">
<path d="M192.524 95.616C181.5 95.616 172.564 86.6799 172.564 75.6557C172.564 64.6327 181.5 55.6967 192.524 55.6967C203.547 55.6967 212.483 64.6327 212.483 75.6557C212.483 86.6799 203.547 95.616 192.524 95.616ZM192.959 59.1975C183.629 59.1975 176.066 66.7607 176.066 76.0909C176.066 85.4211 183.629 92.9844 192.959 92.9844C202.288 92.9844 209.852 85.4211 209.852 76.0909C209.852 66.7607 202.288 59.1975 192.959 59.1975ZM192.524 56.7857C185.359 56.7857 178.899 60.7627 175.668 67.164C175.557 67.3839 175.646 67.6516 175.864 67.7621C175.929 67.7951 175.998 67.8099 176.065 67.8099C176.228 67.8099 176.385 67.7211 176.462 67.5661C179.542 61.4656 185.696 57.6766 192.524 57.6766C193.613 57.6766 194.705 57.7746 195.768 57.9682C195.795 57.9728 195.821 57.9751 195.847 57.9751C196.059 57.9751 196.247 57.8258 196.286 57.6094C196.33 57.3679 196.17 57.1355 195.928 57.0922C194.812 56.8894 193.667 56.7857 192.524 56.7857Z" fill="url(#paint36_linear_265_2439)"/>
</g>
<mask id="mask37_265_2439" style="mask-type:luminance" maskUnits="userSpaceOnUse" x="175" y="56" width="22" height="12">
<path d="M176.064 67.8098C175.997 67.8098 175.929 67.795 175.864 67.762C175.645 67.6515 175.556 67.3838 175.668 67.1639C178.899 60.7626 185.358 56.7856 192.524 56.7856C193.666 56.7856 194.811 56.8893 195.928 57.0921C196.169 57.1354 196.33 57.3677 196.285 57.6093C196.247 57.8257 196.059 57.975 195.847 57.975C195.821 57.975 195.794 57.9727 195.767 57.9681C194.704 57.7744 193.613 57.6765 192.524 57.6765C185.695 57.6765 179.541 61.4655 176.462 67.566C176.384 67.721 176.227 67.8098 176.064 67.8098Z" fill="white"/>
</mask>
<g mask="url(#mask37_265_2439)">
<path d="M176.064 67.8098C175.997 67.8098 175.929 67.795 175.864 67.762C175.645 67.6515 175.556 67.3838 175.668 67.1639C178.899 60.7626 185.358 56.7856 192.524 56.7856C193.666 56.7856 194.811 56.8893 195.928 57.0921C196.169 57.1354 196.33 57.3677 196.285 57.6093C196.247 57.8257 196.059 57.975 195.847 57.975C195.821 57.975 195.794 57.9727 195.767 57.9681C194.704 57.7744 193.613 57.6765 192.524 57.6765C185.695 57.6765 179.541 61.4655 176.462 67.566C176.384 67.721 176.227 67.8098 176.064 67.8098Z" fill="url(#paint37_linear_265_2439)"/>
</g>
<mask id="mask38_265_2439" style="mask-type:luminance" maskUnits="userSpaceOnUse" x="176" y="59" width="34" height="34">
<path d="M192.959 92.9844C183.629 92.9844 176.066 85.4211 176.066 76.0909C176.066 66.7607 183.629 59.1975 192.959 59.1975C202.288 59.1975 209.852 66.7607 209.852 76.0909C209.852 85.4211 202.288 92.9844 192.959 92.9844Z" fill="white"/>
</mask>
<g mask="url(#mask38_265_2439)">
<path d="M192.959 92.9844C183.629 92.9844 176.066 85.4211 176.066 76.0909C176.066 66.7607 183.629 59.1975 192.959 59.1975C202.288 59.1975 209.852 66.7607 209.852 76.0909C209.852 85.4211 202.288 92.9844 192.959 92.9844Z" fill="url(#paint38_linear_265_2439)"/>
</g>
<mask id="mask39_265_2439" style="mask-type:luminance" maskUnits="userSpaceOnUse" x="185" y="64" width="16" height="26">
<path d="M191.301 88.6496V86.812C189.386 86.7346 187.49 86.2823 186.143 85.6933C185.664 85.4837 185.418 84.9437 185.557 84.4379L186.024 82.7257C186.195 82.098 186.877 81.7733 187.477 82.025C188.813 82.5844 190.462 83.0276 192.239 83.0276C194.085 83.0276 195.461 82.401 195.461 81.1194C195.461 79.9619 194.398 79.2738 191.833 78.5857C188.173 77.5844 185.545 75.9895 185.545 72.7678C185.545 69.8593 187.672 67.6379 191.363 67.0443V65.2056C191.363 64.6144 191.843 64.1348 192.434 64.1348H193.514C194.105 64.1348 194.585 64.6144 194.585 65.2056V66.8564C196.358 66.927 197.648 67.23 198.672 67.59C199.198 67.7746 199.485 68.3396 199.339 68.8762L198.909 70.4597C198.744 71.0703 198.091 71.4053 197.499 71.1808C196.557 70.8243 195.223 70.4529 193.49 70.4529C191.301 70.4529 190.675 71.3597 190.675 72.1731C190.675 73.1745 191.989 73.8626 194.836 74.7386C198.901 75.9576 200.591 77.647 200.591 80.6808C200.591 83.465 198.527 85.9667 194.522 86.5933V88.6496C194.522 89.2408 194.043 89.7205 193.451 89.7205H192.371C191.78 89.7205 191.301 89.2408 191.301 88.6496Z" fill="white"/>
</mask>
<g mask="url(#mask39_265_2439)">
<path d="M191.301 88.6496V86.812C189.386 86.7346 187.49 86.2823 186.143 85.6933C185.664 85.4837 185.418 84.9437 185.557 84.4379L186.024 82.7257C186.195 82.098 186.877 81.7733 187.477 82.025C188.813 82.5844 190.462 83.0276 192.239 83.0276C194.085 83.0276 195.461 82.401 195.461 81.1194C195.461 79.9619 194.398 79.2738 191.833 78.5857C188.173 77.5844 185.545 75.9895 185.545 72.7678C185.545 69.8593 187.672 67.6379 191.363 67.0443V65.2056C191.363 64.6144 191.843 64.1348 192.434 64.1348H193.514C194.105 64.1348 194.585 64.6144 194.585 65.2056V66.8564C196.358 66.927 197.648 67.23 198.672 67.59C199.198 67.7746 199.485 68.3396 199.339 68.8762L198.909 70.4597C198.744 71.0703 198.091 71.4053 197.499 71.1808C196.557 70.8243 195.223 70.4529 193.49 70.4529C191.301 70.4529 190.675 71.3597 190.675 72.1731C190.675 73.1745 191.989 73.8626 194.836 74.7386C198.901 75.9576 200.591 77.647 200.591 80.6808C200.591 83.465 198.527 85.9667 194.522 86.5933V88.6496C194.522 89.2408 194.043 89.7205 193.451 89.7205H192.371C191.78 89.7205 191.301 89.2408 191.301 88.6496Z" fill="url(#paint39_linear_265_2439)"/>
</g>
<mask id="mask40_265_2439" style="mask-type:luminance" maskUnits="userSpaceOnUse" x="185" y="100" width="44" height="44">
<path d="M206.763 143.015C196.695 143.015 188.262 136.011 186.072 126.61C185.709 125.056 185.518 123.436 185.518 121.77C185.518 120.871 185.574 119.984 185.683 119.115C185.764 118.462 185.875 117.82 186.014 117.188C186.133 116.643 186.275 116.105 186.435 115.576C189.087 106.865 197.185 100.526 206.763 100.526C208.785 100.526 210.743 100.809 212.596 101.337C212.986 101.448 213.372 101.57 213.752 101.703C220.083 103.907 225.049 109.021 227.049 115.445C227.215 115.973 227.358 116.509 227.482 117.054C227.619 117.66 227.731 118.276 227.815 118.9C227.941 119.838 228.007 120.797 228.007 121.77C228.007 123.36 227.833 124.909 227.502 126.4C225.39 135.907 216.906 143.015 206.763 143.015ZM206.763 101.232C195.42 101.232 186.224 110.427 186.224 121.77C186.224 133.113 195.42 142.308 206.763 142.308C218.105 142.308 227.301 133.113 227.301 121.77C227.301 110.427 218.105 101.232 206.763 101.232Z" fill="white"/>
</mask>
<g mask="url(#mask40_265_2439)">
<path d="M206.763 143.015C196.695 143.015 188.262 136.011 186.072 126.61C185.709 125.056 185.518 123.436 185.518 121.77C185.518 120.871 185.574 119.984 185.683 119.115C185.764 118.462 185.875 117.82 186.014 117.188C186.133 116.643 186.275 116.105 186.435 115.576C189.087 106.865 197.185 100.526 206.763 100.526C208.785 100.526 210.743 100.809 212.596 101.337C212.986 101.448 213.372 101.57 213.752 101.703C220.083 103.907 225.049 109.021 227.049 115.445C227.215 115.973 227.358 116.509 227.482 117.054C227.619 117.66 227.731 118.276 227.815 118.9C227.941 119.838 228.007 120.797 228.007 121.77C228.007 123.36 227.833 124.909 227.502 126.4C225.39 135.907 216.906 143.015 206.763 143.015ZM206.763 101.232C195.42 101.232 186.224 110.427 186.224 121.77C186.224 133.113 195.42 142.308 206.763 142.308C218.105 142.308 227.301 133.113 227.301 121.77C227.301 110.427 218.105 101.232 206.763 101.232Z" fill="url(#paint40_linear_265_2439)"/>
</g>
<mask id="mask41_265_2439" style="mask-type:luminance" maskUnits="userSpaceOnUse" x="186" y="101" width="42" height="42">
<path d="M206.763 142.308C195.42 142.308 186.224 133.113 186.224 121.77C186.224 110.427 195.42 101.232 206.763 101.232C218.105 101.232 227.301 110.427 227.301 121.77C227.301 133.113 218.105 142.308 206.763 142.308ZM207.21 104.835C197.609 104.835 189.827 112.618 189.827 122.218C189.827 131.818 197.609 139.601 207.21 139.601C216.811 139.601 224.593 131.818 224.593 122.218C224.593 112.618 216.811 104.835 207.21 104.835ZM206.762 102.366C199.393 102.366 192.752 106.456 189.43 113.038C189.318 113.258 189.407 113.526 189.626 113.636C189.691 113.669 189.759 113.684 189.826 113.684C189.989 113.684 190.146 113.595 190.224 113.439C193.396 107.159 199.732 103.257 206.762 103.257C207.885 103.257 209.008 103.358 210.103 103.558C210.129 103.562 210.157 103.564 210.183 103.564C210.395 103.564 210.582 103.414 210.62 103.199C210.665 102.957 210.505 102.725 210.263 102.68C209.116 102.472 207.939 102.366 206.762 102.366Z" fill="white"/>
</mask>
<g mask="url(#mask41_265_2439)">
<path d="M206.763 142.308C195.42 142.308 186.224 133.113 186.224 121.77C186.224 110.427 195.42 101.232 206.763 101.232C218.105 101.232 227.301 110.427 227.301 121.77C227.301 133.113 218.105 142.308 206.763 142.308ZM207.21 104.835C197.609 104.835 189.827 112.618 189.827 122.218C189.827 131.818 197.609 139.601 207.21 139.601C216.811 139.601 224.593 131.818 224.593 122.218C224.593 112.618 216.811 104.835 207.21 104.835ZM206.762 102.366C199.393 102.366 192.752 106.456 189.43 113.038C189.318 113.258 189.407 113.526 189.626 113.636C189.691 113.669 189.759 113.684 189.826 113.684C189.989 113.684 190.146 113.595 190.224 113.439C193.396 107.159 199.732 103.257 206.762 103.257C207.885 103.257 209.008 103.358 210.103 103.558C210.129 103.562 210.157 103.564 210.183 103.564C210.395 103.564 210.582 103.414 210.62 103.199C210.665 102.957 210.505 102.725 210.263 102.68C209.116 102.472 207.939 102.366 206.762 102.366Z" fill="url(#paint41_linear_265_2439)"/>
</g>
<mask id="mask42_265_2439" style="mask-type:luminance" maskUnits="userSpaceOnUse" x="189" y="102" width="22" height="12">
<path d="M189.827 113.684C189.759 113.684 189.691 113.669 189.626 113.636C189.407 113.525 189.318 113.258 189.43 113.038C192.752 106.455 199.394 102.366 206.762 102.366C207.939 102.366 209.116 102.472 210.263 102.68C210.506 102.725 210.665 102.957 210.621 103.198C210.582 103.414 210.395 103.564 210.183 103.564C210.157 103.564 210.13 103.562 210.103 103.557C209.009 103.358 207.885 103.257 206.762 103.257C199.732 103.257 193.396 107.158 190.224 113.439C190.147 113.595 189.989 113.684 189.827 113.684Z" fill="white"/>
</mask>
<g mask="url(#mask42_265_2439)">
<path d="M189.827 113.684C189.759 113.684 189.691 113.669 189.626 113.636C189.407 113.525 189.318 113.258 189.43 113.038C192.752 106.455 199.394 102.366 206.762 102.366C207.939 102.366 209.116 102.472 210.263 102.68C210.506 102.725 210.665 102.957 210.621 103.198C210.582 103.414 210.395 103.564 210.183 103.564C210.157 103.564 210.13 103.562 210.103 103.557C209.009 103.358 207.885 103.257 206.762 103.257C199.732 103.257 193.396 107.158 190.224 113.439C190.147 113.595 189.989 113.684 189.827 113.684Z" fill="url(#paint42_linear_265_2439)"/>
</g>
<mask id="mask43_265_2439" style="mask-type:luminance" maskUnits="userSpaceOnUse" x="189" y="104" width="36" height="36">
<path d="M207.209 139.601C197.609 139.601 189.827 131.818 189.827 122.218C189.827 112.618 197.609 104.834 207.209 104.834C216.811 104.834 224.593 112.618 224.593 122.218C224.593 131.818 216.811 139.601 207.209 139.601Z" fill="white"/>
</mask>
<g mask="url(#mask43_265_2439)">
<path d="M207.209 139.601C197.609 139.601 189.827 131.818 189.827 122.218C189.827 112.618 197.609 104.834 207.209 104.834C216.811 104.834 224.593 112.618 224.593 122.218C224.593 131.818 216.811 139.601 207.209 139.601Z" fill="url(#paint43_linear_265_2439)"/>
</g>
<mask id="mask44_265_2439" style="mask-type:luminance" maskUnits="userSpaceOnUse" x="199" y="109" width="17" height="28">
<path d="M205.505 135.141V133.249C203.533 133.17 201.583 132.705 200.198 132.099C199.704 131.883 199.452 131.327 199.593 130.806L200.074 129.045C200.251 128.399 200.953 128.064 201.571 128.323C202.945 128.899 204.641 129.355 206.471 129.355C208.369 129.355 209.786 128.711 209.786 127.391C209.786 126.2 208.691 125.493 206.051 124.784C202.286 123.755 199.583 122.113 199.583 118.798C199.583 115.805 201.771 113.52 205.57 112.908V111.017C205.57 110.409 206.063 109.915 206.671 109.915H207.782C208.39 109.915 208.884 110.409 208.884 111.017V112.716C210.709 112.788 212.036 113.101 213.091 113.471C213.63 113.66 213.926 114.242 213.775 114.795L213.333 116.424C213.164 117.051 212.491 117.395 211.883 117.165C210.912 116.799 209.541 116.417 207.758 116.417C205.505 116.417 204.861 117.35 204.861 118.187C204.861 119.217 206.213 119.925 209.142 120.826C213.325 122.081 215.064 123.82 215.064 126.941C215.064 129.805 212.939 132.381 208.82 133.024V135.141C208.82 135.749 208.326 136.243 207.718 136.243H206.606C205.998 136.243 205.505 135.749 205.505 135.141Z" fill="white"/>
</mask>
<g mask="url(#mask44_265_2439)">
<path d="M205.505 135.141V133.249C203.533 133.17 201.583 132.705 200.198 132.099C199.704 131.883 199.452 131.327 199.593 130.806L200.074 129.045C200.251 128.399 200.953 128.064 201.571 128.323C202.945 128.899 204.641 129.355 206.471 129.355C208.369 129.355 209.786 128.711 209.786 127.391C209.786 126.2 208.691 125.493 206.051 124.784C202.286 123.755 199.583 122.113 199.583 118.798C199.583 115.805 201.771 113.52 205.57 112.908V111.017C205.57 110.409 206.063 109.915 206.671 109.915H207.782C208.39 109.915 208.884 110.409 208.884 111.017V112.716C210.709 112.788 212.036 113.101 213.091 113.471C213.63 113.66 213.926 114.242 213.775 114.795L213.333 116.424C213.164 117.051 212.491 117.395 211.883 117.165C210.912 116.799 209.541 116.417 207.758 116.417C205.505 116.417 204.861 117.35 204.861 118.187C204.861 119.217 206.213 119.925 209.142 120.826C213.325 122.081 215.064 123.82 215.064 126.941C215.064 129.805 212.939 132.381 208.82 133.024V135.141C208.82 135.749 208.326 136.243 207.718 136.243H206.606C205.998 136.243 205.505 135.749 205.505 135.141Z" fill="url(#paint44_linear_265_2439)"/>
</g>
<mask id="mask45_265_2439" style="mask-type:luminance" maskUnits="userSpaceOnUse" x="218" y="77" width="32" height="32">
<path d="M234.016 108.397C225.42 108.397 218.45 101.428 218.45 92.8305C218.45 91.6377 218.586 90.4746 218.84 89.357C218.929 88.9662 219.032 88.5812 219.151 88.2007C221.122 81.8655 227.032 77.2653 234.016 77.2653C241.055 77.2653 247.001 81.9361 248.927 88.3465C249.04 88.727 249.141 89.1143 249.226 89.5062C249.46 90.5782 249.582 91.6901 249.582 92.8305C249.582 101.428 242.613 108.397 234.016 108.397ZM234.016 77.7825C225.706 77.7825 218.969 84.5199 218.969 92.8305C218.969 101.142 225.706 107.88 234.016 107.88C242.327 107.88 249.064 101.142 249.064 92.8305C249.064 84.5199 242.327 77.7825 234.016 77.7825Z" fill="white"/>
</mask>
<g mask="url(#mask45_265_2439)">
<path d="M234.016 108.397C225.42 108.397 218.45 101.428 218.45 92.8305C218.45 91.6377 218.586 90.4746 218.84 89.357C218.929 88.9662 219.032 88.5812 219.151 88.2007C221.122 81.8655 227.032 77.2653 234.016 77.2653C241.055 77.2653 247.001 81.9361 248.927 88.3465C249.04 88.727 249.141 89.1143 249.226 89.5062C249.46 90.5782 249.582 91.6901 249.582 92.8305C249.582 101.428 242.613 108.397 234.016 108.397ZM234.016 77.7825C225.706 77.7825 218.969 84.5199 218.969 92.8305C218.969 101.142 225.706 107.88 234.016 107.88C242.327 107.88 249.064 101.142 249.064 92.8305C249.064 84.5199 242.327 77.7825 234.016 77.7825Z" fill="url(#paint45_linear_265_2439)"/>
</g>
<mask id="mask46_265_2439" style="mask-type:luminance" maskUnits="userSpaceOnUse" x="218" y="77" width="32" height="31">
<path d="M234.017 107.88C225.706 107.88 218.969 101.142 218.969 92.8306C218.969 84.52 225.706 77.7827 234.017 77.7827C242.327 77.7827 249.065 84.52 249.065 92.8306C249.065 101.142 242.327 107.88 234.017 107.88ZM234.345 80.4222C227.31 80.4222 221.608 86.1251 221.608 93.1587C221.608 100.193 227.31 105.895 234.345 105.895C241.378 105.895 247.081 100.193 247.081 93.1587C247.081 86.1251 241.378 80.4222 234.345 80.4222ZM234.017 78.4947C228.572 78.4947 223.666 81.5159 221.211 86.3792C221.1 86.5991 221.188 86.8668 221.408 86.9773C221.472 87.0103 221.54 87.0251 221.608 87.0251C221.771 87.0251 221.927 86.9363 222.006 86.7802C224.308 82.2188 228.911 79.3855 234.017 79.3855C234.832 79.3855 235.649 79.4585 236.443 79.6031C236.471 79.6088 236.497 79.6111 236.524 79.6111C236.736 79.6111 236.922 79.4607 236.96 79.2454C237.005 79.0039 236.844 78.7715 236.603 78.7271C235.756 78.5733 234.886 78.4947 234.017 78.4947Z" fill="white"/>
</mask>
<g mask="url(#mask46_265_2439)">
<path d="M234.017 107.88C225.706 107.88 218.969 101.142 218.969 92.8306C218.969 84.52 225.706 77.7827 234.017 77.7827C242.327 77.7827 249.065 84.52 249.065 92.8306C249.065 101.142 242.327 107.88 234.017 107.88ZM234.345 80.4222C227.31 80.4222 221.608 86.1251 221.608 93.1587C221.608 100.193 227.31 105.895 234.345 105.895C241.378 105.895 247.081 100.193 247.081 93.1587C247.081 86.1251 241.378 80.4222 234.345 80.4222ZM234.017 78.4947C228.572 78.4947 223.666 81.5159 221.211 86.3792C221.1 86.5991 221.188 86.8668 221.408 86.9773C221.472 87.0103 221.54 87.0251 221.608 87.0251C221.771 87.0251 221.927 86.9363 222.006 86.7802C224.308 82.2188 228.911 79.3855 234.017 79.3855C234.832 79.3855 235.649 79.4585 236.443 79.6031C236.471 79.6088 236.497 79.6111 236.524 79.6111C236.736 79.6111 236.922 79.4607 236.96 79.2454C237.005 79.0039 236.844 78.7715 236.603 78.7271C235.756 78.5733 234.886 78.4947 234.017 78.4947Z" fill="url(#paint46_linear_265_2439)"/>
</g>
<mask id="mask47_265_2439" style="mask-type:luminance" maskUnits="userSpaceOnUse" x="221" y="78" width="16" height="10">
<path d="M221.608 87.0251C221.54 87.0251 221.471 87.0103 221.407 86.9773C221.188 86.8668 221.1 86.5991 221.21 86.3792C223.665 81.5159 228.572 78.4947 234.016 78.4947C234.886 78.4947 235.756 78.5733 236.602 78.7271C236.844 78.7715 237.004 79.0039 236.96 79.2454C236.921 79.4607 236.736 79.6111 236.524 79.6111C236.496 79.6111 236.47 79.6088 236.443 79.6031C235.649 79.4585 234.832 79.3855 234.016 79.3855C228.91 79.3855 224.308 82.2188 222.006 86.7802C221.927 86.9363 221.771 87.0251 221.608 87.0251Z" fill="white"/>
</mask>
<g mask="url(#mask47_265_2439)">
<path d="M221.608 87.0251C221.54 87.0251 221.471 87.0103 221.407 86.9773C221.188 86.8668 221.1 86.5991 221.21 86.3792C223.665 81.5159 228.572 78.4947 234.016 78.4947C234.886 78.4947 235.756 78.5733 236.602 78.7271C236.844 78.7715 237.004 79.0039 236.96 79.2454C236.921 79.4607 236.736 79.6111 236.524 79.6111C236.496 79.6111 236.47 79.6088 236.443 79.6031C235.649 79.4585 234.832 79.3855 234.016 79.3855C228.91 79.3855 224.308 82.2188 222.006 86.7802C221.927 86.9363 221.771 87.0251 221.608 87.0251Z" fill="url(#paint47_linear_265_2439)"/>
</g>
<mask id="mask48_265_2439" style="mask-type:luminance" maskUnits="userSpaceOnUse" x="221" y="80" width="27" height="26">
<path d="M234.345 105.895C227.31 105.895 221.608 100.193 221.608 93.1586C221.608 86.125 227.31 80.4221 234.345 80.4221C241.378 80.4221 247.081 86.125 247.081 93.1586C247.081 100.193 241.378 105.895 234.345 105.895Z" fill="white"/>
</mask>
<g mask="url(#mask48_265_2439)">
<path d="M234.345 105.895C227.31 105.895 221.608 100.193 221.608 93.1586C221.608 86.125 227.31 80.4221 234.345 80.4221C241.378 80.4221 247.081 86.125 247.081 93.1586C247.081 100.193 241.378 105.895 234.345 105.895Z" fill="url(#paint48_linear_265_2439)"/>
</g>
<mask id="mask49_265_2439" style="mask-type:luminance" maskUnits="userSpaceOnUse" x="228" y="84" width="13" height="20">
<path d="M233.095 102.627V101.241C231.65 101.183 230.222 100.843 229.207 100.398C228.844 100.24 228.66 99.8333 228.764 99.4516L229.116 98.1609C229.244 97.687 229.759 97.4421 230.213 97.6323C231.219 98.0538 232.461 98.3876 233.802 98.3876C235.193 98.3876 236.231 97.916 236.231 96.9499C236.231 96.0773 235.429 95.5578 233.496 95.0395C230.737 94.2853 228.756 93.0823 228.756 90.6535C228.756 88.4605 230.36 86.7858 233.142 86.3381V84.9517C233.142 84.5062 233.503 84.1451 233.949 84.1451H234.763C235.209 84.1451 235.57 84.5062 235.57 84.9517V86.1968C236.908 86.2504 237.881 86.4782 238.652 86.7494C239.048 86.8883 239.264 87.3144 239.154 87.72L238.831 88.9127C238.705 89.373 238.214 89.6259 237.768 89.4573C237.057 89.1884 236.052 88.9082 234.746 88.9082C233.095 88.9082 232.623 89.5917 232.623 90.2057C232.623 90.9599 233.613 91.4782 235.759 92.139C238.825 93.0583 240.099 94.332 240.099 96.6195C240.099 98.718 238.541 100.605 235.524 101.076V102.627C235.524 103.073 235.162 103.434 234.716 103.434H233.901C233.456 103.434 233.095 103.073 233.095 102.627Z" fill="white"/>
</mask>
<g mask="url(#mask49_265_2439)">
<path d="M233.095 102.627V101.241C231.65 101.183 230.222 100.843 229.207 100.398C228.844 100.24 228.66 99.8333 228.764 99.4516L229.116 98.1609C229.244 97.687 229.759 97.4421 230.213 97.6323C231.219 98.0538 232.461 98.3876 233.802 98.3876C235.193 98.3876 236.231 97.916 236.231 96.9499C236.231 96.0773 235.429 95.5578 233.496 95.0395C230.737 94.2853 228.756 93.0823 228.756 90.6535C228.756 88.4605 230.36 86.7858 233.142 86.3381V84.9517C233.142 84.5062 233.503 84.1451 233.949 84.1451H234.763C235.209 84.1451 235.57 84.5062 235.57 84.9517V86.1968C236.908 86.2504 237.881 86.4782 238.652 86.7494C239.048 86.8883 239.264 87.3144 239.154 87.72L238.831 88.9127C238.705 89.373 238.214 89.6259 237.768 89.4573C237.057 89.1884 236.052 88.9082 234.746 88.9082C233.095 88.9082 232.623 89.5917 232.623 90.2057C232.623 90.9599 233.613 91.4782 235.759 92.139C238.825 93.0583 240.099 94.332 240.099 96.6195C240.099 98.718 238.541 100.605 235.524 101.076V102.627C235.524 103.073 235.162 103.434 234.716 103.434H233.901C233.456 103.434 233.095 103.073 233.095 102.627Z" fill="url(#paint49_linear_265_2439)"/>
</g>
<defs>
<linearGradient id="paint0_linear_265_2439" x1="360.708" y1="410.514" x2="78.6694" y2="60.2407" gradientUnits="userSpaceOnUse">
<stop stop-color="#DAE3FE"/>
<stop offset="1" stop-color="#E9EFFD"/>
</linearGradient>
<linearGradient id="paint1_linear_265_2439" x1="188.401" y1="279.056" x2="124.003" y2="85.8618" gradientUnits="userSpaceOnUse">
<stop stop-color="#09005D"/>
<stop offset="1" stop-color="#1A0F91"/>
</linearGradient>
<linearGradient id="paint2_linear_265_2439" x1="119.891" y1="-98.207" x2="132.63" y2="-8.45708" gradientUnits="userSpaceOnUse">
<stop stop-color="#FF928E"/>
<stop offset="1" stop-color="#FE7062"/>
</linearGradient>
<linearGradient id="paint3_linear_265_2439" x1="162.509" y1="53.7404" x2="161.349" y2="212.616" gradientUnits="userSpaceOnUse">
<stop stop-color="#09005D"/>
<stop offset="1" stop-color="#1A0F91"/>
</linearGradient>
<linearGradient id="paint4_linear_265_2439" x1="220.001" y1="192.614" x2="-226.797" y2="264.48" gradientUnits="userSpaceOnUse">
<stop stop-color="#E1473D"/>
<stop offset="1" stop-color="#E9605A"/>
</linearGradient>
<linearGradient id="paint5_linear_265_2439" x1="220.708" y1="197.014" x2="-226.089" y2="268.88" gradientUnits="userSpaceOnUse">
<stop stop-color="#E1473D"/>
<stop offset="1" stop-color="#E9605A"/>
</linearGradient>
<linearGradient id="paint6_linear_265_2439" x1="106.567" y1="65.4756" x2="304.509" y2="53.9314" gradientUnits="userSpaceOnUse">
<stop stop-color="#E1473D"/>
<stop offset="1" stop-color="#E9605A"/>
</linearGradient>
<linearGradient id="paint7_linear_265_2439" x1="106.584" y1="65.7675" x2="304.526" y2="54.2232" gradientUnits="userSpaceOnUse">
<stop stop-color="#E1473D"/>
<stop offset="1" stop-color="#E9605A"/>
</linearGradient>
<linearGradient id="paint8_linear_265_2439" x1="205.681" y1="-90.5049" x2="240.425" y2="47.6981" gradientUnits="userSpaceOnUse">
<stop stop-color="#4F52FF"/>
<stop offset="1" stop-color="#4042E2"/>
</linearGradient>
<linearGradient id="paint9_linear_265_2439" x1="312.997" y1="306.829" x2="307.744" y2="306.829" gradientUnits="userSpaceOnUse">
<stop stop-color="#FEBBBA"/>
<stop offset="1" stop-color="#FF928E"/>
</linearGradient>
<linearGradient id="paint10_linear_265_2439" x1="176.452" y1="-83.1568" x2="211.195" y2="55.0461" gradientUnits="userSpaceOnUse">
<stop stop-color="#4F52FF"/>
<stop offset="1" stop-color="#4042E2"/>
</linearGradient>
<linearGradient id="paint11_linear_265_2439" x1="286.459" y1="304.497" x2="281.235" y2="304.497" gradientUnits="userSpaceOnUse">
<stop stop-color="#FEBBBA"/>
<stop offset="1" stop-color="#FF928E"/>
</linearGradient>
<linearGradient id="paint12_linear_265_2439" x1="390.339" y1="121.832" x2="352.123" y2="182.051" gradientUnits="userSpaceOnUse">
<stop stop-color="#4F52FF"/>
<stop offset="1" stop-color="#4042E2"/>
</linearGradient>
<linearGradient id="paint13_linear_265_2439" x1="340.235" y1="54.8993" x2="300.282" y2="116.856" gradientUnits="userSpaceOnUse">
<stop stop-color="#4F52FF"/>
<stop offset="1" stop-color="#4042E2"/>
</linearGradient>
<linearGradient id="paint14_linear_265_2439" x1="251.508" y1="151.535" x2="232.094" y2="151.535" gradientUnits="userSpaceOnUse">
<stop stop-color="#FEBBBA"/>
<stop offset="1" stop-color="#FF928E"/>
</linearGradient>
<linearGradient id="paint15_linear_265_2439" x1="238.82" y1="190.873" x2="312.38" y2="190.873" gradientUnits="userSpaceOnUse">
<stop stop-color="#4F52FF"/>
<stop offset="1" stop-color="#4042E2"/>
</linearGradient>
<linearGradient id="paint16_linear_265_2439" x1="202.832" y1="150.557" x2="250.311" y2="209.626" gradientUnits="userSpaceOnUse">
<stop stop-color="#FEBBBA"/>
<stop offset="1" stop-color="#FF928E"/>
</linearGradient>
<linearGradient id="paint17_linear_265_2439" x1="204.117" y1="169.438" x2="231.221" y2="203.159" gradientUnits="userSpaceOnUse">
<stop stop-color="#FEBBBA"/>
<stop offset="1" stop-color="#FF928E"/>
</linearGradient>
<linearGradient id="paint18_linear_265_2439" x1="254.74" y1="124.229" x2="295.368" y2="198.879" gradientUnits="userSpaceOnUse">
<stop stop-color="#FEBBBA"/>
<stop offset="1" stop-color="#FF928E"/>
</linearGradient>
<linearGradient id="paint19_linear_265_2439" x1="267.545" y1="137.981" x2="268.515" y2="167.742" gradientUnits="userSpaceOnUse">
<stop stop-color="#FEBBBA"/>
<stop offset="1" stop-color="#FF928E"/>
</linearGradient>
<linearGradient id="paint20_linear_265_2439" x1="275.444" y1="150.571" x2="257.921" y2="138.202" gradientUnits="userSpaceOnUse">
<stop stop-color="#09005D"/>
<stop offset="1" stop-color="#1A0F91"/>
</linearGradient>
<linearGradient id="paint21_linear_265_2439" x1="278.182" y1="168.515" x2="274.937" y2="148.138" gradientUnits="userSpaceOnUse">
<stop stop-color="#FEBBBA"/>
<stop offset="1" stop-color="#FF928E"/>
</linearGradient>
<linearGradient id="paint22_linear_265_2439" x1="206.463" y1="85.2194" x2="147.521" y2="210.176" gradientUnits="userSpaceOnUse">
<stop stop-color="#4F52FF"/>
<stop offset="1" stop-color="#4042E2"/>
</linearGradient>
<linearGradient id="paint23_linear_265_2439" x1="178.246" y1="133.157" x2="165.158" y2="308.843" gradientUnits="userSpaceOnUse">
<stop stop-color="#50E7B7"/>
<stop offset="0.996377" stop-color="#323992"/>
<stop offset="1" stop-color="#323992"/>
</linearGradient>
<linearGradient id="paint24_linear_265_2439" x1="176.529" y1="134.773" x2="163.442" y2="310.46" gradientUnits="userSpaceOnUse">
<stop stop-color="#50E7B7"/>
<stop offset="0.996377" stop-color="#323992"/>
<stop offset="1" stop-color="#323992"/>
</linearGradient>
<linearGradient id="paint25_linear_265_2439" x1="174.226" y1="159.235" x2="178.155" y2="249.394" gradientUnits="userSpaceOnUse">
<stop stop-color="#4F52FF"/>
<stop offset="1" stop-color="#4042E2"/>
</linearGradient>
<linearGradient id="paint26_linear_265_2439" x1="174.927" y1="136.785" x2="162.173" y2="312.496" gradientUnits="userSpaceOnUse">
<stop stop-color="#4F52FF"/>
<stop offset="1" stop-color="#4042E2"/>
</linearGradient>
<linearGradient id="paint27_linear_265_2439" x1="165.274" y1="150.852" x2="182.561" y2="150.852" gradientUnits="userSpaceOnUse">
<stop stop-color="#DAE3FE"/>
<stop offset="1" stop-color="#E9EFFD"/>
</linearGradient>
<linearGradient id="paint28_linear_265_2439" x1="132.726" y1="169.598" x2="133.824" y2="133.431" gradientUnits="userSpaceOnUse">
<stop stop-color="#4F52FF"/>
<stop offset="1" stop-color="#4042E2"/>
</linearGradient>
<linearGradient id="paint29_linear_265_2439" x1="217.523" y1="172.174" x2="218.621" y2="136.006" gradientUnits="userSpaceOnUse">
<stop stop-color="#4F52FF"/>
<stop offset="1" stop-color="#4042E2"/>
</linearGradient>
<linearGradient id="paint30_linear_265_2439" x1="131.85" y1="-99.9043" x2="144.588" y2="-10.1544" gradientUnits="userSpaceOnUse">
<stop stop-color="#FF928E"/>
<stop offset="1" stop-color="#FE7062"/>
</linearGradient>
<linearGradient id="paint31_linear_265_2439" x1="131.849" y1="-99.9048" x2="144.588" y2="-10.1548" gradientUnits="userSpaceOnUse">
<stop stop-color="#FF928E"/>
<stop offset="1" stop-color="#FE7062"/>
</linearGradient>
<linearGradient id="paint32_linear_265_2439" x1="131.849" y1="-99.9044" x2="144.588" y2="-10.1545" gradientUnits="userSpaceOnUse">
<stop stop-color="#FFDEDD"/>
<stop offset="1" stop-color="#FFD4D0"/>
</linearGradient>
<linearGradient id="paint33_linear_265_2439" x1="131.849" y1="-99.9046" x2="144.588" y2="-10.1547" gradientUnits="userSpaceOnUse">
<stop stop-color="#FFE7E6"/>
<stop offset="1" stop-color="#FFE0DD"/>
</linearGradient>
<linearGradient id="paint34_linear_265_2439" x1="131.726" y1="-99.8874" x2="144.465" y2="-10.1375" gradientUnits="userSpaceOnUse">
<stop stop-color="#FF928E"/>
<stop offset="1" stop-color="#FE7062"/>
</linearGradient>
<linearGradient id="paint35_linear_265_2439" x1="166.9" y1="-104.879" x2="179.638" y2="-15.1295" gradientUnits="userSpaceOnUse">
<stop stop-color="#FF928E"/>
<stop offset="1" stop-color="#FE7062"/>
</linearGradient>
<linearGradient id="paint36_linear_265_2439" x1="166.9" y1="-104.879" x2="179.639" y2="-15.1295" gradientUnits="userSpaceOnUse">
<stop stop-color="#FF928E"/>
<stop offset="1" stop-color="#FE7062"/>
</linearGradient>
<linearGradient id="paint37_linear_265_2439" x1="166.899" y1="-104.879" x2="179.638" y2="-15.1296" gradientUnits="userSpaceOnUse">
<stop stop-color="#FFDEDD"/>
<stop offset="1" stop-color="#FFD4D0"/>
</linearGradient>
<linearGradient id="paint38_linear_265_2439" x1="166.9" y1="-104.879" x2="179.639" y2="-15.1295" gradientUnits="userSpaceOnUse">
<stop stop-color="#FFE7E6"/>
<stop offset="1" stop-color="#FFE0DD"/>
</linearGradient>
<linearGradient id="paint39_linear_265_2439" x1="166.684" y1="-104.849" x2="179.423" y2="-15.0988" gradientUnits="userSpaceOnUse">
<stop stop-color="#FF928E"/>
<stop offset="1" stop-color="#FE7062"/>
</linearGradient>
<linearGradient id="paint40_linear_265_2439" x1="174.441" y1="-105.949" x2="187.18" y2="-16.1992" gradientUnits="userSpaceOnUse">
<stop stop-color="#FF928E"/>
<stop offset="1" stop-color="#FE7062"/>
</linearGradient>
<linearGradient id="paint41_linear_265_2439" x1="174.441" y1="-105.949" x2="187.18" y2="-16.1991" gradientUnits="userSpaceOnUse">
<stop stop-color="#FF928E"/>
<stop offset="1" stop-color="#FE7062"/>
</linearGradient>
<linearGradient id="paint42_linear_265_2439" x1="174.441" y1="-105.949" x2="187.18" y2="-16.1993" gradientUnits="userSpaceOnUse">
<stop stop-color="#FFDEDD"/>
<stop offset="1" stop-color="#FFD4D0"/>
</linearGradient>
<linearGradient id="paint43_linear_265_2439" x1="174.441" y1="-105.949" x2="187.18" y2="-16.1994" gradientUnits="userSpaceOnUse">
<stop stop-color="#FFE7E6"/>
<stop offset="1" stop-color="#FFE0DD"/>
</linearGradient>
<linearGradient id="paint44_linear_265_2439" x1="174.221" y1="-105.918" x2="186.959" y2="-16.1685" gradientUnits="userSpaceOnUse">
<stop stop-color="#FF928E"/>
<stop offset="1" stop-color="#FE7062"/>
</linearGradient>
<linearGradient id="paint45_linear_265_2439" x1="205.183" y1="-110.314" x2="217.922" y2="-20.5637" gradientUnits="userSpaceOnUse">
<stop stop-color="#FF928E"/>
<stop offset="1" stop-color="#FE7062"/>
</linearGradient>
<linearGradient id="paint46_linear_265_2439" x1="205.183" y1="-110.314" x2="217.922" y2="-20.5636" gradientUnits="userSpaceOnUse">
<stop stop-color="#FF928E"/>
<stop offset="1" stop-color="#FE7062"/>
</linearGradient>
<linearGradient id="paint47_linear_265_2439" x1="205.183" y1="-110.314" x2="217.921" y2="-20.5637" gradientUnits="userSpaceOnUse">
<stop stop-color="#FFDEDD"/>
<stop offset="1" stop-color="#FFD4D0"/>
</linearGradient>
<linearGradient id="paint48_linear_265_2439" x1="205.183" y1="-110.314" x2="217.922" y2="-20.5637" gradientUnits="userSpaceOnUse">
<stop stop-color="#FFE7E6"/>
<stop offset="1" stop-color="#FFE0DD"/>
</linearGradient>
<linearGradient id="paint49_linear_265_2439" x1="205.021" y1="-110.29" x2="217.76" y2="-20.5397" gradientUnits="userSpaceOnUse">
<stop stop-color="#FF928E"/>
<stop offset="1" stop-color="#FE7062"/>
</linearGradient>
</defs>
</svg>
