<svg width="11" height="11" viewBox="0 0 11 11" fill="none" xmlns="http://www.w3.org/2000/svg">
<g clip-path="url(#clip0_35_556)">
<path d="M1.45288 3.41003L5.49996 5.75212L9.51955 3.42378M5.49996 9.90462V5.74753" stroke="white" stroke-linecap="round" stroke-linejoin="round"/>
<path d="M4.55129 1.13663L2.10379 2.49788C1.54921 2.80496 1.09546 3.57496 1.09546 4.20746V6.79704C1.09546 7.42954 1.54921 8.19954 2.10379 8.50663L4.55129 9.86788C5.07379 10.1566 5.93088 10.1566 6.45338 9.86788L8.90088 8.50663C9.45546 8.19954 9.90921 7.42954 9.90921 6.79704V4.20746C9.90921 3.57496 9.45546 2.80496 8.90088 2.49788L6.45338 1.13663C5.92629 0.843293 5.07379 0.843293 4.55129 1.13663Z" stroke="white" stroke-linecap="round" stroke-linejoin="round"/>
<path d="M7.79172 6.06832V4.39082L3.44214 1.87915" stroke="white" stroke-linecap="round" stroke-linejoin="round"/>
</g>
<defs>
<clipPath id="clip0_35_556">
<rect width="11" height="11" fill="white"/>
</clipPath>
</defs>
</svg>
