<svg width="329" height="38" viewBox="0 0 329 38" fill="none" xmlns="http://www.w3.org/2000/svg">
<path d="M0 7.98588V37.9848H329V7.98452C329 1.34565 319.814 -0.376179 317.408 5.81136L316.501 8.14461C314.787 12.5516 308.886 13.3369 306.08 9.53145L300.929 2.54729C298.531 -0.704287 293.669 -0.704285 291.271 2.54729L284.479 11.7571C282.081 15.0087 277.219 15.0087 274.821 11.7571L268.029 2.54729C265.631 -0.704287 260.769 -0.704285 258.371 2.54729L251.579 11.7571C249.181 15.0087 244.319 15.0087 241.921 11.7571L235.129 2.54729C232.731 -0.704287 227.869 -0.704285 225.471 2.54729L218.679 11.7571C216.281 15.0087 211.419 15.0087 209.021 11.7571L202.229 2.54728C199.831 -0.704288 194.969 -0.704287 192.571 2.54729L185.779 11.7571C183.381 15.0087 178.519 15.0087 176.121 11.7571L169.329 2.54728C166.931 -0.70429 162.069 -0.704287 159.671 2.54728L152.879 11.7571C150.481 15.0087 145.619 15.0087 143.221 11.7571L136.429 2.54728C134.031 -0.704287 129.169 -0.704285 126.771 2.54729L119.979 11.7571C117.581 15.0087 112.719 15.0087 110.321 11.7571L103.529 2.54728C101.131 -0.704288 96.2693 -0.704287 93.8712 2.54728L87.0788 11.7571C84.6807 15.0087 79.8193 15.0087 77.4212 11.7571L70.6288 2.54728C68.2307 -0.704287 63.3693 -0.704285 60.9712 2.54729L54.1788 11.7571C51.7807 15.0087 46.9193 15.0087 44.5212 11.7571L37.7288 2.54729C35.3307 -0.704287 30.4693 -0.704285 28.0712 2.54729L22.9202 9.53146C20.1137 13.3369 14.213 12.5516 12.4994 8.14461L11.5921 5.81138C9.18609 -0.376158 0 1.34701 0 7.98588Z" fill="white"/>
</svg>
