<svg width="24" height="24" viewBox="0 0 24 24" fill="none" xmlns="http://www.w3.org/2000/svg">
<path d="M21.6 12C21.6 17.7408 16.9408 22.4 11.2 22.4C5.4592 22.4 1.9544 16.6176 1.9544 16.6176M1.9544 16.6176H6.6552M1.9544 16.6176V21.8176M0.799999 12C0.799999 6.25918 5.4176 1.59998 11.2 1.59998C18.1368 1.59998 21.6 7.38238 21.6 7.38238M21.6 7.38238V2.18238M21.6 7.38238H16.9824" stroke="#FFA559" stroke-width="1.5" stroke-linecap="round" stroke-linejoin="round"/>
<path d="M8.8 13.5556C8.8 14.4178 9.51856 15.1111 10.4 15.1111H12.2012C12.9677 15.1111 13.5904 14.5067 13.5904 13.7511C13.5904 12.9422 13.2072 12.6489 12.6419 12.4622L9.75808 11.5289C9.19281 11.3422 8.80958 11.0578 8.80958 10.24C8.80958 9.49333 9.43234 8.88 10.1988 8.88H12C12.8814 8.88 13.6 9.57333 13.6 10.4356M11.1952 8V16" stroke="#FFA559" stroke-width="1.5" stroke-linecap="round" stroke-linejoin="round"/>
</svg>
