<svg width="329" height="38" viewBox="0 0 329 38" fill="none" xmlns="http://www.w3.org/2000/svg">
<path d="M0 29.9989V0H329V30.0003C329 36.6391 319.814 38.361 317.408 32.1734L316.501 29.8402C314.787 25.4332 308.886 24.6479 306.08 28.4533L300.929 35.4375C298.531 38.6891 293.669 38.6891 291.271 35.4375L284.479 26.2276C282.081 22.9761 277.219 22.9761 274.821 26.2277L268.029 35.4375C265.631 38.6891 260.769 38.6891 258.371 35.4375L251.579 26.2276C249.181 22.9761 244.319 22.9761 241.921 26.2276L235.129 35.4375C232.731 38.6891 227.869 38.6891 225.471 35.4375L218.679 26.2276C216.281 22.9761 211.419 22.9761 209.021 26.2276L202.229 35.4375C199.831 38.6891 194.969 38.6891 192.571 35.4375L185.779 26.2277C183.381 22.9761 178.519 22.9761 176.121 26.2277L169.329 35.4375C166.931 38.6891 162.069 38.6891 159.671 35.4375L152.879 26.2276C150.481 22.9761 145.619 22.9761 143.221 26.2277L136.429 35.4375C134.031 38.6891 129.169 38.6891 126.771 35.4375L119.979 26.2276C117.581 22.9761 112.719 22.9761 110.321 26.2276L103.529 35.4375C101.131 38.6891 96.2693 38.6891 93.8712 35.4375L87.0788 26.2276C84.6807 22.9761 79.8193 22.9761 77.4212 26.2277L70.6288 35.4375C68.2307 38.6891 63.3693 38.6891 60.9712 35.4375L54.1788 26.2276C51.7807 22.9761 46.9193 22.9761 44.5212 26.2276L37.7288 35.4375C35.3307 38.6891 30.4693 38.6891 28.0712 35.4375L22.9202 28.4533C20.1137 24.6479 14.213 25.4332 12.4994 29.8402L11.5921 32.1734C9.18609 38.3609 0 36.6378 0 29.9989Z" fill="white"/>
</svg>
