<svg width="329" height="469" viewBox="0 0 329 469" fill="none" xmlns="http://www.w3.org/2000/svg">
<path d="M0 33.853V61.9848V436.639C0 443.562 9.52468 445.453 12.1688 439.055C14.0496 434.504 20.1804 433.754 23.1032 437.717L26.4616 442.27C29.6591 446.606 36.1409 446.606 39.3384 442.27L42.9116 437.425C46.1091 433.09 52.5909 433.09 55.7884 437.425L59.3616 442.27C62.5591 446.606 69.0409 446.606 72.2384 442.27L75.8116 437.425C79.0091 433.09 85.4909 433.09 88.6884 437.425L92.2617 442.27C95.4591 446.606 101.941 446.606 105.138 442.27L108.712 437.425C111.909 433.09 118.391 433.09 121.588 437.425L125.162 442.27C128.359 446.606 134.841 446.606 138.038 442.27L141.612 437.425C144.809 433.09 151.291 433.09 154.488 437.425L158.062 442.27C161.259 446.606 167.741 446.606 170.938 442.27L174.512 437.425C177.709 433.09 184.191 433.09 187.388 437.425L190.962 442.27C194.159 446.606 200.641 446.606 203.838 442.27L207.412 437.425C210.609 433.09 217.091 433.09 220.288 437.425L223.862 442.27C227.059 446.606 233.541 446.606 236.738 442.27L240.312 437.425C243.509 433.09 249.991 433.09 253.188 437.425L256.762 442.27C259.959 446.606 266.441 446.606 269.638 442.27L273.212 437.425C276.409 433.09 282.891 433.09 286.088 437.425L289.662 442.27C292.859 446.606 299.341 446.606 302.538 442.27L305.897 437.717C308.82 433.754 314.95 434.504 316.831 439.055C319.475 445.453 329 443.562 329 436.639V61.9848V33.853C329 26.8266 319.278 25.0028 316.731 31.5515C314.918 36.2158 308.672 37.0469 305.702 33.0193L302.538 28.7297C299.341 24.3943 292.859 24.3943 289.662 28.7297L286.088 33.5747C282.891 37.9101 276.409 37.9101 273.212 33.5747L269.638 28.7297C266.441 24.3943 259.959 24.3943 256.762 28.7297L253.188 33.5747C249.991 37.9101 243.509 37.9101 240.312 33.5747L236.738 28.7297C233.541 24.3943 227.059 24.3943 223.862 28.7297L220.288 33.5747C217.091 37.9101 210.609 37.9101 207.412 33.5747L203.838 28.7297C200.641 24.3943 194.159 24.3943 190.962 28.7297L187.388 33.5747C184.191 37.9101 177.709 37.9101 174.512 33.5747L170.938 28.7297C167.741 24.3943 161.259 24.3943 158.062 28.7297L154.488 33.5747C151.291 37.9101 144.809 37.9101 141.612 33.5747L138.038 28.7297C134.841 24.3943 128.359 24.3943 125.162 28.7297L121.588 33.5747C118.391 37.9101 111.909 37.9101 108.712 33.5747L105.138 28.7297C101.941 24.3943 95.4591 24.3943 92.2616 28.7297L88.6884 33.5747C85.4909 37.9101 79.0091 37.9101 75.8116 33.5747L72.2384 28.7297C69.0409 24.3943 62.5591 24.3943 59.3616 28.7297L55.7884 33.5747C52.5909 37.9101 46.1091 37.9101 42.9116 33.5747L39.3384 28.7297C36.1409 24.3943 29.6591 24.3943 26.4616 28.7297L23.2979 33.0194C20.3275 37.0469 14.0825 36.2158 12.2688 31.5516C9.72231 25.0028 0 26.8266 0 33.853Z" fill="white"/>
</svg>
