<svg width="11" height="11" viewBox="0 0 11 11" fill="none" xmlns="http://www.w3.org/2000/svg">
<g clip-path="url(#clip0_35_440)">
<path d="M6.293 1.60871L7.09966 3.22204C7.20966 3.44663 7.503 3.66204 7.7505 3.70329L9.21258 3.94621C10.1476 4.10204 10.3676 4.78038 9.69383 5.44954L8.55716 6.58621C8.36466 6.77871 8.25925 7.14996 8.31883 7.41579L8.64425 8.82288C8.90091 9.93663 8.30966 10.3675 7.32425 9.78538L5.95383 8.97413C5.70633 8.82746 5.29841 8.82746 5.04633 8.97413L3.67591 9.78538C2.69508 10.3675 2.09925 9.93204 2.35591 8.82288L2.68133 7.41579C2.74091 7.14996 2.6355 6.77871 2.443 6.58621L1.30633 5.44954C0.637164 4.78038 0.85258 4.10204 1.78758 3.94621L3.24966 3.70329C3.49258 3.66204 3.78591 3.44663 3.89591 3.22204L4.70258 1.60871C5.14258 0.733294 5.85758 0.733294 6.293 1.60871Z" stroke="white" stroke-width="1.5" stroke-linecap="round" stroke-linejoin="round"/>
</g>
<defs>
<clipPath id="clip0_35_440">
<rect width="11" height="11" fill="white"/>
</clipPath>
</defs>
</svg>
