<svg width="17" height="17" viewBox="0 0 17 17" fill="none" xmlns="http://www.w3.org/2000/svg">
<g clip-path="url(#clip0_180_2)">
<path d="M5.66675 1.41675V3.54175M11.3334 1.41675V3.54175M2.47925 6.43883H14.5209M15.5834 13.4584C15.5834 13.9897 15.4347 14.4926 15.1726 14.9176C14.9229 15.3373 14.5682 15.6847 14.1434 15.9256C13.7186 16.1666 13.2384 16.2928 12.7501 16.2917C12.0347 16.2917 11.383 16.0297 10.8872 15.5834C10.6676 15.3992 10.4763 15.1726 10.3276 14.9176C10.0579 14.4787 9.9157 13.9735 9.91675 13.4584C9.91675 11.893 11.1847 10.6251 12.7501 10.6251C13.6001 10.6251 14.358 11.0005 14.8751 11.5884C15.3306 12.1049 15.5824 12.7697 15.5834 13.4584Z" stroke="white" stroke-width="1.5" stroke-miterlimit="10" stroke-linecap="round" stroke-linejoin="round"/>
<path d="M11.645 13.4583L12.3463 14.1596L13.855 12.7642" stroke="white" stroke-width="1.5" stroke-linecap="round" stroke-linejoin="round"/>
<path d="M14.875 6.02092V11.5884C14.3579 11.0005 13.6 10.6251 12.75 10.6251C11.1846 10.6251 9.91667 11.893 9.91667 13.4584C9.91667 13.9897 10.0654 14.4926 10.3275 14.9176C10.4762 15.1726 10.6675 15.3992 10.8871 15.5834H5.66667C3.1875 15.5834 2.125 14.1667 2.125 12.0417V6.02092C2.125 3.89592 3.1875 2.47925 5.66667 2.47925H11.3333C13.8125 2.47925 14.875 3.89592 14.875 6.02092Z" stroke="white" stroke-width="1.5" stroke-miterlimit="10" stroke-linecap="round" stroke-linejoin="round"/>
<path d="M8.49654 9.7041H8.50363M5.875 9.7041H5.88208M5.875 11.8291H5.88208" stroke="white" stroke-width="1.5" stroke-linecap="round" stroke-linejoin="round"/>
</g>
<defs>
<clipPath id="clip0_180_2">
<rect width="17" height="17" fill="white"/>
</clipPath>
</defs>
</svg>
