<svg width="22" height="18" viewBox="0 0 22 18" fill="none" xmlns="http://www.w3.org/2000/svg">
<path d="M19.249 4.50317C19.2425 4.33653 19.3196 4.17763 19.4544 4.0795C19.8366 3.80138 20.1959 3.49152 20.528 3.15439C20.1815 3.23636 19.8279 3.29943 19.4684 3.34271C19.2345 3.37088 19.0126 3.23184 18.9359 3.00898C18.8592 2.78613 18.9485 2.53998 19.1503 2.41821C19.5702 2.16484 19.9406 1.83661 20.243 1.45185C19.724 1.65563 19.1831 1.81532 18.6246 1.92613C18.455 1.95976 18.2801 1.90345 18.1621 1.7772C17.426 0.990072 16.3851 0.5 15.2308 0.5C13.0171 0.5 11.2179 2.30783 11.2179 4.5436C11.2179 4.865 11.252 5.17328 11.3206 5.46549C11.3565 5.61848 11.3184 5.77944 11.2177 5.90009C11.117 6.02075 10.9655 6.08705 10.8085 6.0791C7.18767 5.89587 3.95135 4.2626 1.65668 1.74525C1.50323 2.17336 1.41919 2.63488 1.41919 3.11603C1.41919 4.52085 2.12758 5.75898 3.20735 6.48335C3.3925 6.60756 3.47304 6.83934 3.40481 7.05159C3.33658 7.26384 3.13606 7.40527 2.91322 7.39833C2.40261 7.38242 1.9102 7.28871 1.4488 7.12942C1.74706 8.74957 3.00459 10.0304 4.60167 10.3527C4.82866 10.3986 4.99449 10.5942 5.00245 10.8257C5.01041 11.0571 4.85841 11.2637 4.6351 11.325C4.21487 11.4404 3.76996 11.5026 3.31409 11.5026C3.29539 11.5026 3.27672 11.5025 3.25809 11.5023C3.93377 12.7207 5.21729 13.5492 6.69046 13.5768C6.90164 13.5808 7.08756 13.717 7.15495 13.9172C7.22235 14.1174 7.15669 14.3383 6.9909 14.4692C5.59363 15.5723 3.88264 16.2934 2.01535 16.476C3.51791 17.1338 5.17483 17.5 6.91782 17.5C14.8842 17.5 19.2612 10.8639 19.2612 5.07119C19.2612 4.88283 19.2564 4.69365 19.249 4.50317Z" stroke="white" stroke-linecap="round" stroke-linejoin="round"/>
</svg>
