<svg width="16" height="15" viewBox="0 0 16 15" fill="none" xmlns="http://www.w3.org/2000/svg">
<path d="M8.34375 4.84375V8.125M14.0187 5.3625V9.6375C14.0187 10.3375 13.6437 10.9875 13.0375 11.3438L9.325 13.4875C8.71875 13.8375 7.96875 13.8375 7.35625 13.4875L3.64375 11.3438C3.34486 11.1705 3.09683 10.9216 2.92459 10.6221C2.75235 10.3226 2.66196 9.983 2.6625 9.6375V5.3625C2.6625 4.6625 3.0375 4.0125 3.64375 3.65625L7.35625 1.5125C7.9625 1.1625 8.7125 1.1625 9.325 1.5125L13.0375 3.65625C13.6437 4.0125 14.0187 4.65625 14.0187 5.3625Z" stroke="#DD432E" stroke-linecap="round" stroke-linejoin="round"/>
<path d="M8.34375 10.125V10.1875" stroke="#DD432E" stroke-width="1.5" stroke-linecap="round" stroke-linejoin="round"/>
</svg>
