<svg width="17" height="17" viewBox="0 0 17 17" fill="none" xmlns="http://www.w3.org/2000/svg">
<g clip-path="url(#clip0_268_5)">
<path d="M6.38925 2.01162L2.57133 4.98662C1.93383 5.48245 1.41675 6.53787 1.41675 7.33829V12.587C1.41675 14.2304 2.7555 15.5762 4.39883 15.5762H12.6013C14.2447 15.5762 15.5834 14.2304 15.5834 12.5941V7.43745C15.5834 6.58037 15.0097 5.48245 14.3084 4.9937L9.93092 1.92662C8.93925 1.23245 7.3455 1.26787 6.38925 2.01162Z" stroke="white" stroke-width="1.5" stroke-linecap="round" stroke-linejoin="round"/>
<path d="M8.5 6.375V12.75M5.3125 9.5625H11.6875M7.4375 12.75H9.5625C10.7312 12.75 11.6875 11.7937 11.6875 10.625V8.5C11.6875 7.33125 10.7312 6.375 9.5625 6.375H7.4375C6.26875 6.375 5.3125 7.33125 5.3125 8.5V10.625C5.3125 11.7937 6.26875 12.75 7.4375 12.75Z" stroke="white" stroke-width="1.5" stroke-linecap="round" stroke-linejoin="round"/>
</g>
<defs>
<clipPath id="clip0_268_5">
<rect width="17" height="17" fill="white"/>
</clipPath>
</defs>
</svg>
